<?xml version="1.0" encoding="UTF-8" standalone="no"?>
<!DOCTYPE svg PUBLIC "-//W3C//DTD SVG 1.1//EN" "http://www.w3.org/Graphics/SVG/1.1/DTD/svg11.dtd">
<svg width="100%" height="100%" viewBox="0 0 1171 615" version="1.1" xmlns="http://www.w3.org/2000/svg" xmlns:xlink="http://www.w3.org/1999/xlink" xml:space="preserve" style="fill-rule:evenodd;clip-rule:evenodd;stroke-linecap:round;stroke-linejoin:round;stroke-miterlimit:1.5;">
    <g transform="matrix(1,0,0,1,-444.535,-756.844)">
        <g transform="matrix(0.763298,0,0,0.653269,206.27,362.089)">
            <path d="M1845.36,839.944C1845.36,710.298 1755.28,605.042 1644.32,605.042L513.847,605.042C402.89,605.042 312.806,710.298 312.806,839.944L312.806,1309.75C312.806,1439.39 402.89,1544.65 513.847,1544.65L1644.32,1544.65C1755.28,1544.65 1845.36,1439.39 1845.36,1309.75L1845.36,839.944Z" style="fill:rgb(235,235,235);stroke:black;stroke-width:1.41px;"/>
        </g>
        <path d="M931.802,964.044L932.129,964.198L932.41,964.426L932.628,964.714L932.77,965.046L932.829,965.403L932.801,965.764L932.687,966.107L932.495,966.413L932.235,966.664L931.922,966.846L931.31,967.109L930.7,967.372L930.092,967.635L929.486,967.899L928.881,968.164L928.278,968.43L927.676,968.696L927.076,968.963L926.477,969.23L925.88,969.498L925.284,969.767L924.69,970.036L924.097,970.307L923.506,970.577L922.916,970.849L922.328,971.121L921.741,971.394L921.156,971.667L920.572,971.941L919.99,972.216L919.409,972.491L918.83,972.767L918.252,973.044L917.676,973.322L917.101,973.6L916.528,973.878L915.956,974.158L915.386,974.438L914.817,974.718L914.249,975L913.683,975.282L913.119,975.564L912.555,975.848L911.994,976.132L911.434,976.416L910.875,976.702L910.317,976.988L909.761,977.274L909.207,977.562L908.654,977.85L908.102,978.138L907.552,978.428L907.003,978.718L906.456,979.008L905.91,979.299L905.365,979.591L904.822,979.884L904.281,980.177L903.74,980.471L903.201,980.766L902.664,981.061L902.128,981.357L901.593,981.653L901.059,981.951L900.528,982.248L899.997,982.547L899.468,982.846L898.94,983.146L898.414,983.447L897.888,983.748L897.365,984.05L896.842,984.352L896.321,984.655L895.802,984.959L895.284,985.264L894.767,985.569L894.251,985.875L893.737,986.181L893.224,986.488L892.712,986.796L892.202,987.105L891.693,987.414L891.186,987.724L890.68,988.034L890.175,988.345L889.671,988.657L889.169,988.969L888.668,989.282L888.169,989.596L887.67,989.911L887.173,990.226L886.678,990.541L886.183,990.858L885.69,991.175L885.199,991.493L884.708,991.811L884.219,992.13L883.731,992.45L883.245,992.77L882.759,993.091L882.275,993.413L881.792,993.735L881.311,994.058L880.831,994.382L880.352,994.706L879.874,995.032L879.398,995.357L878.923,995.684L878.449,996.011L877.976,996.338L877.505,996.667L877.035,996.996L876.566,997.325L876.098,997.656L875.632,997.987L875.166,998.318L874.702,998.651L874.24,998.984L873.778,999.317L873.318,999.652L872.859,999.987L872.401,1000.32L871.944,1000.66L871.489,1001L871.035,1001.33L870.582,1001.67L870.13,1002.01L869.679,1002.35L869.23,1002.69L868.782,1003.03L868.335,1003.37L867.889,1003.72L867.444,1004.06L867.001,1004.4L866.559,1004.75L866.118,1005.09L865.678,1005.44L865.239,1005.78L864.801,1006.13L864.365,1006.48L863.93,1006.83L863.496,1007.18L863.063,1007.52L862.631,1007.87L862.2,1008.23L861.771,1008.58L861.342,1008.93L860.915,1009.28L860.489,1009.64L860.064,1009.99L859.64,1010.35L859.218,1010.7L858.796,1011.06L858.376,1011.41L857.956,1011.77L857.538,1012.13L857.121,1012.49L856.705,1012.85L856.29,1013.21L855.877,1013.57L855.464,1013.93L855.052,1014.29L854.642,1014.66L854.233,1015.02L853.824,1015.38L853.417,1015.75L853.011,1016.11L852.606,1016.48L852.202,1016.85L851.799,1017.22L851.398,1017.58L850.997,1017.95L850.597,1018.32L850.199,1018.69L849.801,1019.06L849.405,1019.44L849.009,1019.81L848.615,1020.18L848.222,1020.55L847.829,1020.93L847.438,1021.3L847.048,1021.68L846.659,1022.06L846.271,1022.43L845.884,1022.81L845.498,1023.19L845.113,1023.57L844.729,1023.95L844.346,1024.33L843.964,1024.71L843.583,1025.09L843.203,1025.47L842.824,1025.85L842.446,1026.24L842.069,1026.62L841.693,1027.01L841.318,1027.39L840.944,1027.78L840.572,1028.17L840.2,1028.55L839.829,1028.94L839.459,1029.33L839.09,1029.72L838.722,1030.11L838.355,1030.5L837.989,1030.89L837.623,1031.29L837.259,1031.68L836.896,1032.07L836.534,1032.47L836.173,1032.86L835.812,1033.26L835.453,1033.65L835.095,1034.05L834.737,1034.45L834.381,1034.85L834.025,1035.25L833.671,1035.65L833.317,1036.05L832.964,1036.45L832.612,1036.85L832.261,1037.25L831.911,1037.66L831.562,1038.06L831.214,1038.46L830.867,1038.87L830.52,1039.28L830.175,1039.68L829.83,1040.09L829.487,1040.5L829.144,1040.9L828.802,1041.31L828.461,1041.72L828.121,1042.13L827.782,1042.55L827.444,1042.96L827.106,1043.37L826.769,1043.78L826.434,1044.2L826.099,1044.61L825.765,1045.03L825.432,1045.44L825.1,1045.86L824.768,1046.28L824.438,1046.69L824.108,1047.11L823.779,1047.53L823.452,1047.95L823.124,1048.37L822.798,1048.8L822.473,1049.22L822.148,1049.64L821.825,1050.06L821.502,1050.49L821.18,1050.91L820.858,1051.34L820.538,1051.76L820.218,1052.19L819.899,1052.62L819.582,1053.05L819.264,1053.47L818.948,1053.9L818.632,1054.33L818.318,1054.76L818.004,1055.2L817.691,1055.63L817.378,1056.06L817.067,1056.49L816.756,1056.93L816.446,1057.36L816.137,1057.8L815.828,1058.24L815.521,1058.67L815.214,1059.11L814.907,1059.55L814.602,1059.99L814.298,1060.43L813.994,1060.87L813.691,1061.31L813.388,1061.75L813.087,1062.19L812.786,1062.63L812.486,1063.08L812.187,1063.52L811.888,1063.97L811.59,1064.41L811.293,1064.86L810.997,1065.31L810.701,1065.76L810.406,1066.2L810.112,1066.65L809.819,1067.1L809.526,1067.55L809.234,1068L808.942,1068.46L808.652,1068.91L808.362,1069.36L808.073,1069.82L807.784,1070.27L807.496,1070.73L807.209,1071.18L806.923,1071.64L806.637,1072.1L806.352,1072.55L806.068,1073.01L805.784,1073.47L805.501,1073.93L805.219,1074.39L804.937,1074.85L804.656,1075.32L804.376,1075.78L804.097,1076.24L803.818,1076.71L803.539,1077.17L803.262,1077.64L802.985,1078.1L802.708,1078.57L802.433,1079.04L802.157,1079.51L801.883,1079.97L801.609,1080.44L801.336,1080.91L801.064,1081.38L800.792,1081.86L800.521,1082.33L800.25,1082.8L799.98,1083.28L799.711,1083.75L799.442,1084.22L799.174,1084.7L798.906,1085.18L798.639,1085.65L798.373,1086.13L798.107,1086.61L797.842,1087.09L797.577,1087.57L797.313,1088.05L797.05,1088.53L796.787,1089.01L796.525,1089.5L796.264,1089.98L796.003,1090.46L795.742,1090.95L795.482,1091.43L795.223,1091.92L794.964,1092.4L794.706,1092.89L794.448,1093.38L794.191,1093.87L793.935,1094.36L793.679,1094.85L793.424,1095.34L793.169,1095.83L792.915,1096.32L792.661,1096.82L792.408,1097.31L792.155,1097.8L791.903,1098.3L791.651,1098.79L791.4,1099.29L791.149,1099.79L790.899,1100.28L790.65,1100.78L790.401,1101.28L790.152,1101.78L789.904,1102.28L789.657,1102.78L789.41,1103.28L789.163,1103.79L788.918,1104.29L788.427,1105.3L787.939,1106.31L787.452,1107.32L786.967,1108.34L786.485,1109.36L786.004,1110.38L785.525,1111.4L785.048,1112.43L784.572,1113.46L784.099,1114.5L783.627,1115.53L783.157,1116.57L782.688,1117.61L782.221,1118.65L781.756,1119.7L781.293,1120.75L780.831,1121.8L780.371,1122.86L779.912,1123.92L779.455,1124.98L779,1126.04L778.546,1127.11L778.093,1128.17L777.642,1129.25L777.193,1130.32L776.744,1131.4L776.298,1132.48L775.852,1133.56L775.408,1134.64L774.965,1135.73L774.524,1136.82L774.083,1137.92L773.644,1139.01L773.207,1140.11L772.77,1141.21L772.335,1142.32L771.901,1143.42L771.468,1144.53L771.036,1145.65L770.605,1146.76L770.175,1147.88L769.747,1149L769.319,1150.12L768.892,1151.25L768.467,1152.38L768.042,1153.51L767.618,1154.65L767.195,1155.78L766.773,1156.92L766.352,1158.07L765.932,1159.21L765.512,1160.36L765.094,1161.51L764.676,1162.67L764.259,1163.82L763.842,1164.98L763.427,1166.14L763.012,1167.31L762.597,1168.48L762.184,1169.65L761.771,1170.82L761.358,1172L760.946,1173.18L760.535,1174.36L760.124,1175.54L759.714,1176.73L759.304,1177.92L758.894,1179.11L758.485,1180.31L758.077,1181.51L757.669,1182.71L757.261,1183.91L756.853,1185.12L756.446,1186.32L756.039,1187.54L755.633,1188.75L755.477,1189.08L755.248,1189.36L754.959,1189.58L754.626,1189.72L754.269,1189.77L753.909,1189.75L753.566,1189.63L753.26,1189.44L753.01,1189.17L752.83,1188.86L752.729,1188.52L752.715,1188.15L752.788,1187.8L753.195,1186.58L753.603,1185.37L754.011,1184.16L754.419,1182.95L754.828,1181.74L755.237,1180.54L755.646,1179.34L756.056,1178.14L756.467,1176.94L756.878,1175.75L757.289,1174.56L757.701,1173.37L758.114,1172.19L758.527,1171.01L758.94,1169.83L759.355,1168.65L759.769,1167.48L760.185,1166.31L760.601,1165.14L761.018,1163.97L761.436,1162.81L761.854,1161.65L762.274,1160.49L762.694,1159.33L763.115,1158.18L763.536,1157.03L763.959,1155.88L764.382,1154.74L764.807,1153.6L765.232,1152.46L765.659,1151.32L766.086,1150.19L766.514,1149.06L766.944,1147.93L767.374,1146.81L767.806,1145.68L768.238,1144.56L768.672,1143.45L769.107,1142.33L769.543,1141.22L769.98,1140.11L770.419,1139L770.858,1137.9L771.299,1136.8L771.742,1135.7L772.185,1134.6L772.63,1133.51L773.077,1132.42L773.524,1131.33L773.973,1130.25L774.424,1129.16L774.876,1128.08L775.33,1127.01L775.785,1125.93L776.241,1124.86L776.699,1123.79L777.159,1122.73L777.62,1121.66L778.083,1120.6L778.547,1119.54L779.013,1118.49L779.481,1117.43L779.951,1116.38L780.422,1115.34L780.895,1114.29L781.37,1113.25L781.847,1112.21L782.325,1111.17L782.805,1110.14L783.288,1109.11L783.772,1108.08L784.258,1107.05L784.746,1106.03L785.236,1105.01L785.728,1103.99L786.221,1102.97L786.469,1102.47L786.717,1101.96L786.966,1101.46L787.216,1100.95L787.465,1100.45L787.716,1099.94L787.967,1099.44L788.218,1098.94L788.47,1098.44L788.722,1097.94L788.975,1097.44L789.229,1096.94L789.483,1096.44L789.737,1095.94L789.993,1095.44L790.248,1094.95L790.505,1094.45L790.761,1093.96L791.019,1093.46L791.277,1092.97L791.535,1092.47L791.794,1091.98L792.054,1091.49L792.314,1091L792.575,1090.51L792.836,1090.02L793.099,1089.53L793.361,1089.04L793.624,1088.55L793.888,1088.07L794.152,1087.58L794.417,1087.09L794.683,1086.61L794.949,1086.12L795.216,1085.64L795.483,1085.16L795.751,1084.67L796.02,1084.19L796.289,1083.71L796.559,1083.23L796.83,1082.75L797.101,1082.27L797.372,1081.79L797.645,1081.31L797.918,1080.84L798.192,1080.36L798.466,1079.88L798.741,1079.41L799.016,1078.93L799.293,1078.46L799.57,1077.99L799.847,1077.52L800.125,1077.04L800.404,1076.57L800.684,1076.1L800.964,1075.63L801.245,1075.16L801.527,1074.69L801.809,1074.23L802.092,1073.76L802.375,1073.29L802.66,1072.83L802.945,1072.36L803.23,1071.9L803.517,1071.43L803.804,1070.97L804.092,1070.51L804.38,1070.05L804.669,1069.59L804.959,1069.12L805.25,1068.66L805.541,1068.21L805.833,1067.75L806.126,1067.29L806.42,1066.83L806.714,1066.38L807.009,1065.92L807.304,1065.47L807.601,1065.01L807.898,1064.56L808.196,1064.1L808.495,1063.65L808.794,1063.2L809.094,1062.75L809.395,1062.3L809.697,1061.85L809.999,1061.4L810.302,1060.95L810.607,1060.5L810.911,1060.06L811.217,1059.61L811.523,1059.16L811.83,1058.72L812.138,1058.28L812.446,1057.83L812.756,1057.39L813.066,1056.95L813.377,1056.51L813.689,1056.07L814.001,1055.62L814.315,1055.18L814.629,1054.75L814.944,1054.31L815.26,1053.87L815.576,1053.43L815.894,1053L816.212,1052.56L816.531,1052.13L816.851,1051.69L817.171,1051.26L817.493,1050.83L817.815,1050.39L818.138,1049.96L818.463,1049.53L818.787,1049.1L819.113,1048.67L819.44,1048.24L819.767,1047.82L820.095,1047.39L820.424,1046.96L820.754,1046.53L821.085,1046.11L821.417,1045.68L821.749,1045.26L822.083,1044.84L822.417,1044.41L822.752,1043.99L823.088,1043.57L823.425,1043.15L823.763,1042.73L824.102,1042.31L824.441,1041.89L824.782,1041.47L825.123,1041.06L825.465,1040.64L825.809,1040.22L826.153,1039.81L826.498,1039.39L826.844,1038.98L827.19,1038.57L827.538,1038.15L827.887,1037.74L828.236,1037.33L828.587,1036.92L828.938,1036.51L829.291,1036.1L829.644,1035.69L829.998,1035.28L830.353,1034.88L830.709,1034.47L831.066,1034.06L831.424,1033.66L831.783,1033.25L832.143,1032.85L832.504,1032.45L832.865,1032.04L833.228,1031.64L833.592,1031.24L833.957,1030.84L834.322,1030.44L834.689,1030.04L835.056,1029.64L835.425,1029.25L835.795,1028.85L836.165,1028.45L836.537,1028.06L836.909,1027.66L837.283,1027.27L837.657,1026.87L838.033,1026.48L838.409,1026.09L838.787,1025.69L839.165,1025.3L839.545,1024.91L839.925,1024.52L840.307,1024.13L840.689,1023.75L841.073,1023.36L841.457,1022.97L841.843,1022.59L842.229,1022.2L842.617,1021.82L843.006,1021.43L843.396,1021.05L843.786,1020.66L844.178,1020.28L844.571,1019.9L844.965,1019.52L845.36,1019.14L845.756,1018.76L846.153,1018.38L846.551,1018L846.95,1017.62L847.351,1017.25L847.752,1016.87L848.154,1016.5L848.558,1016.12L848.962,1015.75L849.368,1015.37L849.775,1015L850.183,1014.63L850.591,1014.26L851.001,1013.89L851.413,1013.52L851.825,1013.15L852.238,1012.78L852.652,1012.41L853.068,1012.04L853.484,1011.68L853.902,1011.31L854.321,1010.95L854.741,1010.58L855.162,1010.22L855.584,1009.85L856.007,1009.49L856.432,1009.13L856.857,1008.77L857.284,1008.41L857.712,1008.05L858.141,1007.69L858.571,1007.33L859.002,1006.97L859.434,1006.61L859.868,1006.26L860.302,1005.9L860.738,1005.55L861.175,1005.19L861.613,1004.84L862.053,1004.49L862.493,1004.13L862.935,1003.78L863.378,1003.43L863.822,1003.08L864.267,1002.73L864.713,1002.38L865.161,1002.03L865.609,1001.69L866.059,1001.34L866.511,1000.99L866.963,1000.65L867.416,1000.3L867.871,999.956L868.327,999.613L868.784,999.27L869.242,998.927L869.702,998.586L870.163,998.245L870.625,997.905L871.088,997.565L871.552,997.226L872.018,996.888L872.485,996.551L872.953,996.214L873.422,995.878L873.893,995.542L874.365,995.207L874.838,994.873L875.312,994.54L875.787,994.207L876.264,993.875L876.742,993.543L877.221,993.213L877.702,992.882L878.184,992.553L878.667,992.224L879.151,991.896L879.637,991.569L880.124,991.242L880.612,990.916L881.101,990.591L881.592,990.266L882.084,989.942L882.577,989.619L883.072,989.297L883.568,988.975L884.065,988.653L884.563,988.333L885.063,988.013L885.564,987.694L886.067,987.375L886.57,987.057L887.075,986.74L887.582,986.424L888.089,986.108L888.598,985.793L889.109,985.478L889.62,985.165L890.133,984.851L890.647,984.539L891.163,984.227L891.68,983.916L892.198,983.606L892.718,983.296L893.239,982.987L893.761,982.679L894.285,982.371L894.81,982.064L895.336,981.758L895.864,981.452L896.393,981.147L896.924,980.843L897.455,980.539L897.989,980.236L898.523,979.934L899.059,979.632L899.596,979.331L900.135,979.031L900.675,978.732L901.217,978.433L901.76,978.135L902.304,977.837L902.85,977.54L903.397,977.244L903.945,976.949L904.495,976.654L905.046,976.36L905.599,976.066L906.153,975.774L906.709,975.481L907.266,975.19L907.824,974.899L908.384,974.609L908.945,974.32L909.508,974.031L910.072,973.743L910.637,973.456L911.204,973.169L911.773,972.883L912.343,972.598L912.914,972.313L913.487,972.029L914.061,971.746L914.637,971.463L915.214,971.181L915.792,970.9L916.372,970.62L916.954,970.34L917.537,970.06L918.121,969.782L918.707,969.504L919.295,969.227L919.884,968.95L920.474,968.675L921.066,968.399L921.659,968.125L922.254,967.851L922.85,967.578L923.448,967.305L924.048,967.034L924.648,966.763L925.251,966.492L925.855,966.222L926.46,965.953L927.067,965.685L927.675,965.417L928.285,965.15L928.897,964.884L929.51,964.618L930.124,964.353L930.739,964.089L931.086,963.988L931.447,963.972L931.802,964.044Z" style="fill:white;"/>
        <path d="M965.976,1029.42L966.237,1029.51L966.478,1029.65L966.689,1029.83L966.864,1030.04L966.997,1030.28L967.082,1030.55L967.118,1030.82L967.103,1031.1L967.037,1031.37L966.923,1031.62L966.764,1031.84L966.567,1032.04L966.337,1032.19L965.365,1032.72L964.377,1033.26L963.372,1033.81L962.352,1034.37L961.316,1034.94L960.264,1035.52L959.198,1036.11L958.117,1036.71L957.021,1037.32L955.912,1037.94L954.788,1038.57L953.652,1039.21L952.503,1039.86L951.341,1040.52L950.166,1041.18L948.98,1041.86L947.782,1042.54L946.573,1043.24L945.353,1043.94L944.122,1044.65L942.881,1045.37L941.63,1046.1L940.37,1046.83L939.1,1047.58L937.821,1048.33L936.534,1049.09L935.239,1049.86L933.936,1050.64L932.625,1051.42L931.967,1051.82L931.307,1052.22L930.645,1052.62L929.982,1053.02L929.317,1053.42L928.651,1053.83L927.983,1054.23L927.313,1054.64L926.642,1055.05L925.97,1055.46L925.296,1055.88L924.621,1056.29L923.945,1056.71L923.267,1057.13L922.588,1057.55L921.908,1057.97L921.227,1058.4L920.545,1058.83L919.862,1059.26L919.178,1059.68L918.492,1060.12L917.807,1060.55L917.12,1060.99L916.432,1061.42L915.743,1061.86L915.054,1062.3L914.364,1062.74L913.674,1063.18L912.982,1063.63L912.291,1064.08L911.599,1064.53L910.906,1064.97L910.213,1065.43L909.519,1065.88L908.825,1066.33L908.131,1066.79L907.436,1067.25L906.742,1067.7L906.047,1068.17L905.352,1068.63L904.656,1069.09L903.961,1069.56L903.266,1070.02L902.571,1070.49L901.876,1070.96L901.181,1071.43L900.486,1071.9L899.791,1072.38L899.097,1072.85L898.403,1073.33L897.709,1073.8L897.016,1074.28L896.323,1074.76L895.63,1075.24L894.938,1075.72L894.247,1076.21L893.556,1076.69L892.866,1077.18L892.176,1077.67L891.487,1078.16L890.799,1078.65L890.112,1079.14L889.426,1079.63L888.74,1080.12L888.055,1080.62L887.372,1081.12L886.689,1081.61L886.007,1082.11L885.327,1082.61L884.648,1083.11L883.969,1083.61L883.292,1084.12L882.617,1084.62L881.942,1085.13L881.269,1085.63L880.598,1086.14L879.928,1086.65L879.259,1087.16L878.592,1087.67L877.926,1088.18L877.262,1088.69L876.6,1089.2L875.939,1089.72L875.28,1090.23L874.623,1090.75L873.968,1091.27L873.314,1091.78L872.663,1092.3L872.013,1092.82L871.366,1093.34L870.72,1093.86L870.077,1094.38L869.435,1094.91L868.796,1095.43L868.159,1095.96L867.525,1096.48L866.892,1097.01L866.262,1097.54L865.634,1098.06L865.009,1098.59L864.386,1099.12L863.766,1099.65L863.148,1100.18L862.533,1100.71L861.921,1101.25L861.311,1101.78L860.704,1102.31L860.1,1102.85L859.498,1103.38L858.899,1103.92L858.304,1104.45L857.711,1104.99L857.121,1105.53L856.534,1106.06L855.95,1106.6L855.37,1107.14L854.792,1107.68L854.218,1108.22L853.647,1108.76L853.079,1109.3L852.514,1109.84L851.953,1110.38L851.396,1110.93L850.841,1111.47L850.29,1112.01L849.743,1112.56L849.2,1113.1L848.66,1113.65L848.123,1114.19L847.591,1114.74L847.061,1115.28L846.798,1115.55L846.536,1115.83L846.275,1116.1L846.015,1116.37L845.756,1116.65L845.498,1116.92L845.241,1117.19L844.984,1117.47L844.729,1117.74L844.475,1118.01L844.221,1118.29L843.969,1118.56L843.718,1118.84L843.468,1119.11L843.218,1119.38L842.97,1119.66L842.723,1119.93L842.477,1120.2L842.232,1120.48L841.988,1120.75L841.745,1121.03L841.503,1121.3L841.262,1121.58L841.023,1121.85L840.784,1122.12L840.546,1122.4L840.31,1122.67L840.074,1122.95L839.84,1123.22L839.607,1123.5L839.375,1123.77L839.144,1124.05L838.914,1124.32L838.685,1124.6L838.457,1124.87L838.231,1125.15L838.006,1125.42L837.781,1125.7L837.558,1125.97L837.336,1126.25L837.116,1126.52L836.896,1126.8L836.678,1127.07L836.46,1127.35L836.244,1127.62L836.03,1127.9L835.816,1128.17L835.603,1128.45L835.392,1128.72L835.182,1129L834.973,1129.27L834.766,1129.55L834.559,1129.82L834.354,1130.1L834.15,1130.37L833.947,1130.65L833.746,1130.92L833.546,1131.19L833.347,1131.47L833.149,1131.75L832.953,1132.02L832.757,1132.3L832.563,1132.57L832.371,1132.85L832.18,1133.12L831.99,1133.39L831.801,1133.67L831.613,1133.94L831.427,1134.22L831.242,1134.49L831.059,1134.77L830.877,1135.04L830.696,1135.32L830.516,1135.59L830.338,1135.87L830.161,1136.14L829.986,1136.41L829.812,1136.69L829.639,1136.96L829.468,1137.24L829.298,1137.51L829.129,1137.78L828.962,1138.06L828.796,1138.33L828.631,1138.61L828.468,1138.88L828.307,1139.15L828.146,1139.43L827.987,1139.7L827.83,1139.97L827.674,1140.25L827.519,1140.52L827.366,1140.79L827.214,1141.07L827.064,1141.34L826.915,1141.61L826.768,1141.89L826.621,1142.16L826.477,1142.43L826.334,1142.7L826.192,1142.98L826.052,1143.25L825.913,1143.52L825.776,1143.79L825.641,1144.07L825.506,1144.34L825.374,1144.61L825.243,1144.88L825.113,1145.15L824.985,1145.42L824.858,1145.7L824.733,1145.97L824.609,1146.24L824.487,1146.51L824.367,1146.78L824.248,1147.05L824.13,1147.32L824.015,1147.59L823.9,1147.86L823.787,1148.13L823.676,1148.4L823.567,1148.67L823.459,1148.94L823.352,1149.21L823.247,1149.48L823.144,1149.75L823.042,1150.02L822.942,1150.29L822.843,1150.56L822.747,1150.83L822.651,1151.1L822.558,1151.37L822.465,1151.63L822.374,1151.91L822.262,1152.16L822.105,1152.39L821.909,1152.58L821.68,1152.74L821.427,1152.85L821.157,1152.91L820.881,1152.92L820.606,1152.89L820.344,1152.8L820.103,1152.66L819.89,1152.49L819.713,1152.27L819.579,1152.03L819.492,1151.77L819.454,1151.49L819.467,1151.22L819.531,1150.95L819.625,1150.67L819.722,1150.38L819.821,1150.1L819.922,1149.82L820.024,1149.54L820.128,1149.25L820.233,1148.97L820.34,1148.68L820.449,1148.4L820.559,1148.12L820.671,1147.84L820.784,1147.55L820.899,1147.27L821.016,1146.99L821.134,1146.7L821.254,1146.42L821.376,1146.13L821.499,1145.85L821.623,1145.57L821.749,1145.28L821.877,1145L822.006,1144.72L822.137,1144.43L822.269,1144.15L822.403,1143.87L822.538,1143.58L822.675,1143.3L822.813,1143.02L822.953,1142.73L823.094,1142.45L823.237,1142.17L823.382,1141.88L823.527,1141.6L823.675,1141.32L823.823,1141.03L823.974,1140.75L824.125,1140.46L824.278,1140.18L824.433,1139.9L824.589,1139.62L824.746,1139.33L824.905,1139.05L825.066,1138.77L825.227,1138.48L825.39,1138.2L825.555,1137.91L825.721,1137.63L825.888,1137.35L826.057,1137.07L826.227,1136.78L826.399,1136.5L826.571,1136.22L826.746,1135.93L826.921,1135.65L827.098,1135.37L827.276,1135.08L827.456,1134.8L827.637,1134.52L827.819,1134.24L828.003,1133.95L828.188,1133.67L828.374,1133.39L828.562,1133.1L828.751,1132.82L828.941,1132.54L829.133,1132.26L829.325,1131.97L829.519,1131.69L829.715,1131.41L829.911,1131.13L830.11,1130.84L830.309,1130.56L830.509,1130.28L830.711,1130L830.914,1129.71L831.118,1129.43L831.323,1129.15L831.53,1128.87L831.738,1128.59L831.947,1128.31L832.157,1128.02L832.369,1127.74L832.582,1127.46L832.795,1127.18L833.011,1126.9L833.227,1126.62L833.444,1126.33L833.663,1126.05L833.883,1125.77L834.104,1125.49L834.326,1125.21L834.549,1124.93L834.774,1124.65L835,1124.37L835.226,1124.08L835.454,1123.8L835.683,1123.52L835.913,1123.24L836.145,1122.96L836.377,1122.68L836.611,1122.4L836.845,1122.12L837.081,1121.84L837.318,1121.56L837.556,1121.28L837.795,1121L838.035,1120.72L838.276,1120.44L838.518,1120.16L838.761,1119.88L839.006,1119.6L839.251,1119.32L839.497,1119.04L839.745,1118.76L839.993,1118.48L840.243,1118.2L840.493,1117.92L840.745,1117.64L840.997,1117.37L841.251,1117.09L841.505,1116.81L841.761,1116.53L842.018,1116.25L842.275,1115.97L842.534,1115.7L842.793,1115.42L843.054,1115.14L843.315,1114.86L843.577,1114.58L843.841,1114.31L844.105,1114.03L844.37,1113.75L844.637,1113.47L844.904,1113.2L845.441,1112.64L845.981,1112.09L846.526,1111.54L847.074,1110.99L847.625,1110.43L848.18,1109.88L848.738,1109.33L849.3,1108.78L849.865,1108.23L850.434,1107.68L851.006,1107.13L851.581,1106.59L852.159,1106.04L852.741,1105.49L853.325,1104.94L853.913,1104.4L854.504,1103.86L855.097,1103.31L855.694,1102.77L856.294,1102.23L856.896,1101.68L857.501,1101.14L858.109,1100.6L858.72,1100.06L859.334,1099.52L859.95,1098.98L860.569,1098.45L861.19,1097.91L861.814,1097.37L862.441,1096.84L863.069,1096.3L863.701,1095.77L864.334,1095.24L864.97,1094.7L865.609,1094.17L866.249,1093.64L866.892,1093.11L867.537,1092.59L868.184,1092.06L868.832,1091.53L869.484,1091.01L870.137,1090.48L870.791,1089.96L871.448,1089.43L872.107,1088.91L872.768,1088.39L873.43,1087.87L874.094,1087.35L874.76,1086.83L875.427,1086.32L876.096,1085.8L876.767,1085.29L877.439,1084.77L878.112,1084.26L878.788,1083.75L879.464,1083.24L880.142,1082.73L880.821,1082.22L881.501,1081.71L882.183,1081.2L882.865,1080.7L883.549,1080.19L884.234,1079.69L884.92,1079.19L885.607,1078.69L886.296,1078.19L886.985,1077.69L887.674,1077.2L888.365,1076.7L889.057,1076.21L889.749,1075.71L890.442,1075.22L891.136,1074.73L891.83,1074.24L892.525,1073.75L893.22,1073.27L893.916,1072.78L894.613,1072.3L895.31,1071.81L896.007,1071.33L896.704,1070.85L897.402,1070.37L898.1,1069.9L898.799,1069.42L899.497,1068.95L900.196,1068.47L900.895,1068L901.593,1067.53L902.292,1067.06L902.991,1066.6L903.69,1066.13L904.388,1065.67L905.086,1065.2L905.785,1064.74L906.482,1064.28L907.18,1063.83L907.877,1063.37L908.574,1062.91L909.271,1062.46L909.967,1062.01L910.662,1061.56L911.357,1061.11L912.051,1060.66L912.745,1060.22L913.438,1059.77L914.13,1059.33L914.822,1058.89L915.513,1058.45L916.203,1058.02L916.892,1057.58L917.58,1057.15L918.267,1056.71L918.953,1056.28L919.638,1055.86L920.322,1055.43L921.005,1055L921.686,1054.58L922.367,1054.16L923.046,1053.74L923.724,1053.32L924.4,1052.91L925.075,1052.49L925.749,1052.08L926.421,1051.67L927.092,1051.26L927.761,1050.86L928.428,1050.45L929.094,1050.05L929.758,1049.65L930.42,1049.25L931.081,1048.85L932.397,1048.06L933.705,1047.28L935.005,1046.51L936.297,1045.75L937.58,1044.99L938.854,1044.24L940.119,1043.51L941.374,1042.78L942.619,1042.05L943.854,1041.34L945.078,1040.63L946.292,1039.94L947.493,1039.25L948.684,1038.58L949.862,1037.91L951.028,1037.25L952.181,1036.6L953.321,1035.96L954.447,1035.33L955.56,1034.7L956.659,1034.09L957.743,1033.49L958.813,1032.9L959.867,1032.32L960.906,1031.74L961.93,1031.18L962.937,1030.63L963.928,1030.09L964.901,1029.56L965.155,1029.45L965.425,1029.39L965.702,1029.38L965.976,1029.42Z" style="fill:white;"/>
        <g transform="matrix(1,0,0,1,-169.774,-153.679)">
            <text x="1075.34px" y="1256.08px" style="font-family:'Arial-BoldMT', 'Arial', sans-serif;font-weight:700;font-size:50px;fill:rgb(255,195,0);">a</text>
        </g>
        <g transform="matrix(1,0,0,1,-169.917,-151.739)">
            <path d="M1079.86,1212.62L1103.06,1213.25L1098.81,1207.85" style="fill:none;stroke:rgb(255,195,0);stroke-width:1.67px;"/>
        </g>
        <g transform="matrix(1,0,0,1,-367.192,-87.8245)">
            <text x="1099.16px" y="1244.28px" style="font-family:'Arial-BoldMT', 'Arial', sans-serif;font-weight:700;font-size:50px;fill:rgb(255,195,0);">Aceleración</text>
        </g>
        <path d="M905.138,896.81L905.444,896.879L905.729,897.01L905.98,897.197L906.187,897.432L906.341,897.706L906.435,898.005L906.464,898.317L906.427,898.629L906.327,898.926L906.167,899.196L905.955,899.426L905.266,900.032L904.58,900.638L903.896,901.243L903.213,901.849L902.532,902.456L901.853,903.062L901.176,903.669L900.501,904.276L899.827,904.883L899.155,905.49L898.485,906.098L897.817,906.706L897.15,907.314L896.485,907.922L895.822,908.531L895.161,909.14L894.501,909.749L893.843,910.359L893.187,910.969L892.533,911.579L891.88,912.189L891.229,912.8L890.58,913.412L889.933,914.023L889.287,914.635L888.643,915.247L888.001,915.86L887.36,916.472L886.721,917.086L886.084,917.699L885.449,918.313L884.815,918.928L884.183,919.542L883.553,920.157L882.924,920.773L882.297,921.389L881.672,922.005L881.048,922.622L880.426,923.239L879.806,923.857L879.188,924.475L878.571,925.093L877.956,925.712L877.342,926.332L876.731,926.951L876.121,927.572L875.512,928.192L874.905,928.814L874.3,929.435L873.697,930.058L873.095,930.68L872.495,931.303L871.896,931.927L871.3,932.551L870.705,933.176L870.111,933.801L869.519,934.427L868.929,935.053L868.34,935.68L867.753,936.307L867.168,936.935L866.584,937.564L866.002,938.193L865.421,938.822L864.842,939.453L864.265,940.083L863.689,940.715L863.115,941.347L862.543,941.979L861.972,942.612L861.403,943.246L860.835,943.88L860.269,944.515L859.705,945.151L859.142,945.787L858.58,946.424L858.021,947.061L857.463,947.7L856.906,948.338L856.351,948.978L855.798,949.618L855.246,950.259L854.696,950.9L854.147,951.542L853.6,952.185L853.054,952.829L852.51,953.473L851.968,954.118L851.427,954.764L850.888,955.41L850.35,956.057L849.813,956.705L849.279,957.354L848.746,958.003L848.214,958.653L847.684,959.304L847.155,959.956L846.628,960.608L846.103,961.261L845.579,961.915L845.056,962.57L844.535,963.226L844.016,963.882L843.498,964.539L842.981,965.197L842.466,965.856L841.953,966.515L841.441,967.176L840.93,967.837L840.421,968.499L839.914,969.162L839.408,969.826L838.904,970.49L838.401,971.156L837.899,971.822L837.399,972.49L836.9,973.158L836.403,973.827L835.908,974.497L835.413,975.167L834.921,975.839L834.43,976.512L833.94,977.185L833.451,977.86L832.965,978.535L832.479,979.212L831.995,979.889L831.513,980.567L831.032,981.246L830.552,981.926L830.074,982.607L829.597,983.289L829.122,983.972L828.648,984.656L828.175,985.342L827.704,986.028L827.234,986.715L826.766,987.403L826.299,988.092L825.834,988.782L825.37,989.473L824.907,990.165L824.446,990.858L823.986,991.552L823.528,992.247L823.071,992.944L822.615,993.641L822.161,994.339L821.708,995.039L821.257,995.739L820.807,996.441L820.358,997.144L819.911,997.848L819.465,998.553L819.02,999.258L818.577,999.966L818.135,1000.67L817.695,1001.38L817.256,1002.09L816.818,1002.81L816.382,1003.52L815.947,1004.23L815.513,1004.95L815.081,1005.66L814.65,1006.38L814.22,1007.1L813.792,1007.82L813.365,1008.54L812.939,1009.26L812.515,1009.99L812.092,1010.71L811.67,1011.44L811.25,1012.16L810.831,1012.89L810.413,1013.62L809.997,1014.35L809.582,1015.08L809.168,1015.82L808.755,1016.55L808.344,1017.29L807.934,1018.02L807.526,1018.76L807.118,1019.5L806.712,1020.24L806.308,1020.98L805.904,1021.73L805.502,1022.47L805.101,1023.22L804.702,1023.97L804.303,1024.71L803.907,1025.46L803.511,1026.21L803.116,1026.97L802.723,1027.72L802.331,1028.48L801.941,1029.23L801.551,1029.99L801.163,1030.75L800.776,1031.51L800.39,1032.27L800.006,1033.04L799.623,1033.8L799.241,1034.57L798.86,1035.34L798.481,1036.11L798.102,1036.88L797.725,1037.65L797.35,1038.42L796.975,1039.19L796.602,1039.97L796.23,1040.75L795.859,1041.53L795.489,1042.31L795.121,1043.09L794.753,1043.87L794.387,1044.66L794.023,1045.45L793.659,1046.23L793.297,1047.02L792.935,1047.81L792.575,1048.61L792.216,1049.4L791.859,1050.2L791.502,1050.99L791.147,1051.79L790.793,1052.59L790.44,1053.39L790.088,1054.2L789.738,1055L789.388,1055.81L789.04,1056.61L788.693,1057.42L788.347,1058.23L788.002,1059.05L787.659,1059.86L787.316,1060.68L786.975,1061.49L786.635,1062.31L786.296,1063.13L785.958,1063.95L785.621,1064.78L785.285,1065.6L784.951,1066.43L784.618,1067.26L784.285,1068.09L783.954,1068.92L783.624,1069.76L783.296,1070.59L782.968,1071.43L782.641,1072.27L782.316,1073.11L781.991,1073.95L781.668,1074.79L781.346,1075.64L781.025,1076.48L780.705,1077.33L780.564,1077.61L780.368,1077.86L780.126,1078.06L779.847,1078.2L779.545,1078.29L779.232,1078.3L778.922,1078.26L778.628,1078.14L778.364,1077.98L778.141,1077.76L777.969,1077.49L777.854,1077.2L777.804,1076.89L777.818,1076.58L777.897,1076.28L778.219,1075.42L778.542,1074.57L778.866,1073.72L779.191,1072.87L779.517,1072.03L779.845,1071.18L780.173,1070.34L780.503,1069.49L780.834,1068.65L781.166,1067.82L781.499,1066.98L781.833,1066.14L782.169,1065.31L782.505,1064.48L782.843,1063.65L783.182,1062.82L783.522,1061.99L783.863,1061.16L784.205,1060.34L784.549,1059.52L784.894,1058.7L785.239,1057.88L785.586,1057.06L785.935,1056.24L786.284,1055.43L786.634,1054.62L786.986,1053.8L787.339,1053L787.693,1052.19L788.048,1051.38L788.405,1050.57L788.763,1049.77L789.121,1048.97L789.482,1048.17L789.843,1047.37L790.205,1046.57L790.569,1045.77L790.934,1044.98L791.3,1044.19L791.667,1043.39L792.036,1042.6L792.406,1041.82L792.777,1041.03L793.149,1040.24L793.522,1039.46L793.897,1038.67L794.273,1037.89L794.65,1037.11L795.028,1036.33L795.408,1035.56L795.789,1034.78L796.171,1034.01L796.554,1033.23L796.939,1032.46L797.325,1031.69L797.712,1030.92L798.101,1030.15L798.49,1029.39L798.881,1028.62L799.273,1027.86L799.667,1027.1L800.062,1026.34L800.458,1025.58L800.855,1024.82L801.254,1024.06L801.654,1023.31L802.055,1022.55L802.457,1021.8L802.861,1021.05L803.266,1020.3L803.672,1019.55L804.08,1018.8L804.489,1018.06L804.899,1017.31L805.311,1016.57L805.724,1015.83L806.138,1015.09L806.554,1014.35L806.97,1013.61L807.389,1012.87L807.808,1012.13L808.229,1011.4L808.651,1010.66L809.074,1009.93L809.499,1009.2L809.925,1008.47L810.353,1007.74L810.782,1007.01L811.212,1006.29L811.643,1005.56L812.076,1004.84L812.511,1004.12L812.946,1003.39L813.383,1002.67L813.821,1001.96L814.261,1001.24L814.702,1000.52L815.145,999.804L815.588,999.089L816.033,998.375L816.48,997.663L816.928,996.951L817.377,996.241L817.828,995.532L818.28,994.824L818.733,994.117L819.188,993.411L819.645,992.706L820.102,992.003L820.561,991.3L821.022,990.599L821.484,989.898L821.947,989.199L822.411,988.5L822.878,987.803L823.345,987.107L823.814,986.411L824.284,985.717L824.756,985.024L825.229,984.332L825.704,983.641L826.18,982.951L826.657,982.261L827.136,981.573L827.617,980.886L828.098,980.2L828.582,979.515L829.066,978.83L829.553,978.147L830.04,977.465L830.529,976.783L831.02,976.103L831.512,975.423L832.005,974.745L832.5,974.067L832.996,973.391L833.494,972.715L833.993,972.04L834.494,971.366L834.996,970.693L835.5,970.021L836.005,969.349L836.512,968.679L837.02,968.01L837.53,967.341L838.041,966.673L838.554,966.006L839.068,965.34L839.584,964.675L840.101,964.011L840.62,963.347L841.14,962.684L841.661,962.022L842.185,961.361L842.709,960.701L843.236,960.042L843.763,959.383L844.293,958.725L844.823,958.068L845.356,957.412L845.89,956.757L846.425,956.102L846.962,955.448L847.501,954.795L848.041,954.142L848.582,953.491L849.125,952.84L849.67,952.189L850.216,951.54L850.764,950.891L851.313,950.243L851.864,949.596L852.417,948.949L852.971,948.303L853.526,947.658L854.084,947.014L854.642,946.37L855.203,945.727L855.764,945.084L856.328,944.442L856.893,943.801L857.46,943.161L858.028,942.521L858.598,941.882L859.169,941.243L859.742,940.605L860.317,939.968L860.893,939.331L861.471,938.695L862.05,938.06L862.631,937.425L863.214,936.791L863.798,936.157L864.384,935.524L864.971,934.892L865.561,934.26L866.151,933.628L866.744,932.998L867.338,932.367L867.933,931.738L868.531,931.109L869.129,930.48L869.73,929.852L870.332,929.224L870.936,928.597L871.542,927.971L872.149,927.345L872.757,926.719L873.368,926.094L873.98,925.47L874.594,924.846L875.209,924.222L875.826,923.599L876.445,922.977L877.065,922.355L877.688,921.733L878.311,921.112L878.937,920.491L879.564,919.871L880.193,919.251L880.823,918.631L881.455,918.012L882.089,917.394L882.725,916.775L883.362,916.158L884.001,915.54L884.642,914.923L885.284,914.306L885.928,913.69L886.574,913.074L887.222,912.459L887.871,911.844L888.522,911.229L889.175,910.614L889.829,910L890.485,909.386L891.143,908.773L891.803,908.16L892.464,907.547L893.127,906.935L893.792,906.323L894.458,905.711L895.126,905.099L895.796,904.488L896.468,903.877L897.142,903.266L897.817,902.656L898.494,902.046L899.173,901.436L899.853,900.826L900.536,900.217L901.22,899.608L901.906,898.999L902.593,898.39L903.283,897.781L903.973,897.174L904.229,896.993L904.517,896.868L904.824,896.807L905.138,896.81Z" style="fill:white;"/>
        <g transform="matrix(1,0,0,1,-227.564,-281.556)">
            <text x="1075.34px" y="1256.08px" style="font-family:'Arial-BoldMT', 'Arial', sans-serif;font-weight:700;font-size:50px;fill:rgb(0,41,255);">F</text>
            <text x="1105.88px" y="1256.08px" style="font-family:'Arial-BoldMT', 'Arial', sans-serif;font-weight:700;font-size:33.333px;fill:rgb(0,41,255);">R</text>
        </g>
        <g transform="matrix(1,0,0,1,-217.012,-283.791)">
            <path d="M1079.86,1212.62L1103.06,1213.25L1098.81,1207.85" style="fill:none;stroke:rgb(0,41,255);stroke-width:1.67px;"/>
        </g>
        <g transform="matrix(1,0,0,1,-571.336,-349.014)">
            <text x="1099.16px" y="1244.28px" style="font-family:'Arial-BoldMT', 'Arial', sans-serif;font-weight:700;font-size:50px;fill:rgb(0,41,255);">Fuerza de</text>
            <text x="1099.16px" y="1295.92px" style="font-family:'Arial-BoldMT', 'Arial', sans-serif;font-weight:700;font-size:50px;fill:rgb(0,41,255);">Rozamiento</text>
            <text x="1099.16px" y="1347.55px" style="font-family:'Arial-BoldMT', 'Arial', sans-serif;font-weight:700;font-size:50px;fill:rgb(0,41,255);">del aire</text>
        </g>
        <g transform="matrix(1,0,0,1,-17.0669,3.88292)">
            <text x="1075.34px" y="1256.08px" style="font-family:'Arial-BoldMT', 'Arial', sans-serif;font-weight:700;font-size:50px;fill:rgb(0,41,255);">P</text>
        </g>
        <g transform="matrix(1,0,0,1,-17.2097,5.82367)">
            <path d="M1079.86,1212.62L1103.06,1213.25L1098.81,1207.85" style="fill:none;stroke:rgb(0,41,255);stroke-width:1.67px;"/>
        </g>
        <g transform="matrix(1,0,0,1,-214.485,69.7377)">
            <text x="1099.16px" y="1244.28px" style="font-family:'Arial-BoldMT', 'Arial', sans-serif;font-weight:700;font-size:50px;fill:rgb(0,41,255);">Fuerza Peso</text>
        </g>
        <g transform="matrix(0.728838,0,0,0.677638,566.863,307.642)">
            <ellipse cx="625.802" cy="873.966" rx="122.205" ry="128.086" style="fill:rgb(255,102,0);"/>
        </g>
        <g transform="matrix(1,0,0,1,345.725,-375.109)">
            <text x="1075.34px" y="1256.08px" style="font-family:'Arial-BoldMT', 'Arial', sans-serif;font-weight:700;font-size:50px;fill:rgb(255,0,0);">V</text>
        </g>
        <g transform="matrix(1,0,0,1,345.583,-373.168)">
            <path d="M1079.86,1212.62L1103.06,1213.25L1098.81,1207.85" style="fill:none;stroke:rgb(255,0,0);stroke-width:1.67px;"/>
        </g>
        <g transform="matrix(1,0,0,1,201.538,-311.712)">
            <text x="1099.16px" y="1244.28px" style="font-family:'Arial-BoldMT', 'Arial', sans-serif;font-weight:700;font-size:50px;fill:rgb(255,0,0);">V<tspan x="1129.75px 1157.56px " y="1244.28px 1244.28px ">el</tspan>ocidad</text>
        </g>
        <path d="M944.304,860.468C990.959,902.237 977.031,971.631 977.031,971.631" style="fill:none;stroke:black;stroke-width:1px;"/>
        <path d="M999.722,815.131L1042.49,983.761" style="fill:none;stroke:black;stroke-width:1px;"/>
        <path d="M1072.2,825.921C1072.2,825.921 1059.02,896.169 1105.12,933.664" style="fill:none;stroke:black;stroke-width:1px;"/>
        <g transform="matrix(1,0,0,1,4.29605,13.1221)">
            <path d="M935.964,914.252C935.964,914.252 1023.6,923.724 1103.96,864.059" style="fill:none;stroke:black;stroke-width:1px;"/>
        </g>
        <g>
            <g transform="matrix(1,0,0,-1,22.6121,2492.16)">
                <path d="M1003.83,1225.24L1023.55,1266.82L984.12,1266.82L1003.83,1225.24Z" style="fill:rgb(0,41,255);stroke:rgb(0,41,255);stroke-width:1.67px;"/>
            </g>
            <path d="M1026.37,915.269L1026.85,1234.12" style="fill:none;stroke:rgb(0,41,255);stroke-width:8.33px;"/>
        </g>
        <g transform="matrix(0.950165,0.311748,-0.182524,0.556308,216.916,84.597)">
            <g transform="matrix(1,0,0,-1,22.6121,2492.16)">
                <path d="M1003.83,1225.24L1023.55,1266.82L984.12,1266.82L1003.83,1225.24Z" style="fill:rgb(255,195,0);stroke:rgb(255,195,0);stroke-width:2.03px;"/>
            </g>
            <path d="M1026.37,915.269L1026.85,1234.12" style="fill:rgb(255,195,0);stroke:rgb(255,195,0);stroke-width:10.17px;"/>
        </g>
        <g transform="matrix(0.271651,0.962396,-0.335126,0.0945946,1052.8,-157.197)">
            <g transform="matrix(1,0,0,-1,22.6121,2492.16)">
                <path d="M1003.83,1225.24L1023.55,1266.82L984.12,1266.82L1003.83,1225.24Z" style="fill:rgb(0,41,255);stroke:rgb(0,41,255);stroke-width:2.23px;"/>
            </g>
            <path d="M1026.37,915.269L1026.85,1234.12" style="fill:none;stroke:rgb(0,41,255);stroke-width:11.13px;"/>
        </g>
        <g transform="matrix(-0.188786,-0.982018,0.982018,-0.188786,323.891,2096.68)">
            <g transform="matrix(1,0,0,-1,22.6121,2492.16)">
                <path d="M1003.83,1225.24L1023.55,1266.82L984.12,1266.82L1003.83,1225.24Z" style="fill:rgb(255,0,0);stroke:rgb(255,0,0);stroke-width:1.67px;"/>
            </g>
            <path d="M1026.37,915.269L1026.85,1234.12" style="fill:rgb(255,0,0);stroke:rgb(255,0,0);stroke-width:8.33px;"/>
        </g>
    </g>
</svg>
