<?xml version="1.0" encoding="UTF-8" standalone="no"?>
<!DOCTYPE svg PUBLIC "-//W3C//DTD SVG 1.1//EN" "http://www.w3.org/Graphics/SVG/1.1/DTD/svg11.dtd">
<svg width="100%" height="100%" viewBox="0 0 530 537" version="1.1" xmlns="http://www.w3.org/2000/svg" xmlns:xlink="http://www.w3.org/1999/xlink" xml:space="preserve" style="fill-rule:evenodd;clip-rule:evenodd;stroke-linecap:round;stroke-linejoin:round;stroke-miterlimit:1.5;">
    <g transform="matrix(1,0,0,1,-212.264,-403.315)">
        <g transform="matrix(1.02922,0,0,0.918886,-21.6759,76.2688)">
            <path d="M741.69,499.957C741.69,420.459 684.067,355.917 613.092,355.917L355.895,355.917C284.92,355.917 227.297,420.459 227.297,499.957L227.297,796.223C227.297,875.721 284.92,940.263 355.895,940.263L613.092,940.263C684.067,940.263 741.69,875.721 741.69,796.223L741.69,499.957Z" style="fill:rgb(228,228,228);"/>
        </g>
        <g transform="matrix(-6.12323e-17,-1,-1,6.12323e-17,1146.36,1146.36)">
            <g transform="matrix(-0.000946358,-0.999999,0.999999,-0.000946358,-527.304,1698.4)">
                <g transform="matrix(0.577455,0,0,-0.448841,446.621,1801.58)">
                    <path d="M1003.83,1225.24L1023.55,1266.82L984.12,1266.82L1003.83,1225.24Z" style="fill:rgb(255,0,0);stroke:rgb(255,0,0);stroke-width:1.67px;"/>
                </g>
                <g transform="matrix(-0.589786,2.1684e-19,4.33681e-19,1.4757,1631.71,-587.075)">
                    <path d="M1026.37,915.269L1026.85,1234.12" style="fill:rgb(255,0,0);stroke:rgb(255,0,0);stroke-width:5.56px;"/>
                </g>
                <g transform="matrix(-0.000946359,1,-1,-0.000946359,1697.9,528.911)">
                    <path d="M241.404,660.697L241.781,683.564" style="fill:none;stroke:rgb(255,0,0);stroke-width:1px;"/>
                </g>
            </g>
            <g transform="matrix(1,0,0,1,23.4976,0.21754)">
                <path d="M241.404,660.697L241.781,683.564" style="fill:none;stroke:rgb(255,0,0);stroke-width:1px;"/>
            </g>
            <g transform="matrix(1,0,0,1,47.0684,0.331299)">
                <path d="M241.404,660.697L241.781,683.564" style="fill:none;stroke:rgb(255,0,0);stroke-width:1px;"/>
            </g>
            <g transform="matrix(1,0,0,1,70.5281,0.573454)">
                <path d="M241.404,660.697L241.781,683.564" style="fill:none;stroke:rgb(255,0,0);stroke-width:1px;"/>
            </g>
            <g transform="matrix(1,0,0,1,94.1615,0.399156)">
                <path d="M241.404,660.697L241.781,683.564" style="fill:none;stroke:rgb(255,0,0);stroke-width:1px;"/>
            </g>
            <g transform="matrix(1,0,0,1,117.599,0.472999)">
                <path d="M241.404,660.697L241.781,683.564" style="fill:none;stroke:rgb(255,0,0);stroke-width:1px;"/>
            </g>
            <g transform="matrix(1,0,0,1,140.834,-0.234916)">
                <path d="M241.404,660.697L241.781,683.564" style="fill:none;stroke:rgb(255,0,0);stroke-width:1px;"/>
            </g>
            <g transform="matrix(1,0,0,1,164.405,-0.121157)">
                <path d="M241.404,660.697L241.781,683.564" style="fill:none;stroke:rgb(255,0,0);stroke-width:1px;"/>
            </g>
            <g transform="matrix(1,0,0,1,187.865,0.120997)">
                <path d="M241.404,660.697L241.781,683.564" style="fill:none;stroke:rgb(255,0,0);stroke-width:1px;"/>
            </g>
            <g transform="matrix(1,0,0,1,211.498,-0.0533007)">
                <path d="M241.404,660.697L241.781,683.564" style="fill:none;stroke:rgb(255,0,0);stroke-width:1px;"/>
            </g>
            <g transform="matrix(1,0,0,1,234.936,0.0205431)">
                <path d="M241.404,660.697L241.781,683.564" style="fill:none;stroke:rgb(255,0,0);stroke-width:1px;"/>
            </g>
            <g transform="matrix(1,0,0,1,258.441,0.155827)">
                <path d="M241.404,660.697L241.781,683.564" style="fill:none;stroke:rgb(255,0,0);stroke-width:1px;"/>
            </g>
            <g transform="matrix(1,0,0,1,282.012,0.269587)">
                <path d="M241.404,660.697L241.781,683.564" style="fill:none;stroke:rgb(255,0,0);stroke-width:1px;"/>
            </g>
            <g transform="matrix(1,0,0,1,305.472,0.511741)">
                <path d="M241.404,660.697L241.781,683.564" style="fill:none;stroke:rgb(255,0,0);stroke-width:1px;"/>
            </g>
            <g transform="matrix(1,0,0,1,329.105,0.337443)">
                <path d="M241.404,660.697L241.781,683.564" style="fill:none;stroke:rgb(255,0,0);stroke-width:1px;"/>
            </g>
            <g transform="matrix(1,0,0,1,352.543,0.411287)">
                <path d="M241.404,660.697L241.781,683.564" style="fill:none;stroke:rgb(255,0,0);stroke-width:1px;"/>
            </g>
            <g transform="matrix(1,0,0,1,376.062,0.412576)">
                <path d="M241.404,660.697L241.781,683.564" style="fill:none;stroke:rgb(255,0,0);stroke-width:1px;"/>
            </g>
            <g transform="matrix(1,0,0,1,399.521,0.65473)">
                <path d="M241.404,660.697L241.781,683.564" style="fill:none;stroke:rgb(255,0,0);stroke-width:1px;"/>
            </g>
            <g transform="matrix(1,0,0,1,423.155,0.480432)">
                <path d="M241.404,660.697L241.781,683.564" style="fill:none;stroke:rgb(255,0,0);stroke-width:1px;"/>
            </g>
            <g transform="matrix(1,0,0,1,446.592,0.554276)">
                <path d="M241.404,660.697L241.781,683.564" style="fill:none;stroke:rgb(255,0,0);stroke-width:1px;"/>
            </g>
        </g>
        <path d="M548.447,504.806L475.194,505.277" style="fill:none;stroke:rgb(195,195,195);stroke-width:1.87px;stroke-dasharray:1.87,3.75,0,0;"/>
        <g transform="matrix(-0.000946358,0.999999,0.999999,0.000946358,-527.304,-359.197)">
            <g transform="matrix(0.603578,0,1.53381e-19,-0.481212,419.872,1841.94)">
                <path d="M1003.83,1225.24L1023.55,1266.82L984.12,1266.82L1003.83,1225.24Z" style="fill:rgb(0,0,255);stroke:rgb(0,0,255);stroke-width:1.67px;"/>
            </g>
            <g transform="matrix(-0.589786,2.1684e-19,4.33681e-19,1.4757,1631.71,-587.075)">
                <path d="M1026.37,915.269L1026.85,1234.12" style="fill:rgb(0,0,255);stroke:rgb(0,0,255);stroke-width:5.56px;"/>
            </g>
            <g transform="matrix(-0.000946359,1,-1,-0.000946359,1697.9,528.911)">
                <path d="M241.404,660.697L241.781,683.564" style="fill:rgb(0,0,255);stroke:rgb(0,0,255);stroke-width:1px;"/>
            </g>
        </g>
        <g transform="matrix(0.575809,0.263562,0.151466,-0.330912,-230.912,650.158)">
            <g transform="matrix(0.603578,0,1.53381e-19,-0.481212,419.872,1841.94)">
                <path d="M1003.83,1225.24L1023.55,1266.82L984.12,1266.82L1003.83,1225.24Z" style="fill:rgb(6,136,0);stroke:rgb(6,136,0);stroke-width:1.67px;"/>
            </g>
            <g transform="matrix(-0.589786,2.1684e-19,4.33681e-19,1.4757,1631.71,-587.075)">
                <path d="M1026.37,915.269L1026.85,1234.12" style="fill:rgb(6,136,0);stroke:rgb(6,136,0);stroke-width:5.56px;"/>
            </g>
        </g>
        <g transform="matrix(1,-1.22465e-16,-1.22465e-16,-1,23.4976,1338.99)">
            <path d="M241.404,660.697L241.781,683.564" style="fill:rgb(0,0,255);stroke:rgb(0,0,255);stroke-width:1px;"/>
        </g>
        <g transform="matrix(1,-1.22465e-16,-1.22465e-16,-1,47.0684,1338.87)">
            <path d="M241.404,660.697L241.781,683.564" style="fill:rgb(0,0,255);stroke:rgb(0,0,255);stroke-width:1px;"/>
        </g>
        <g transform="matrix(1,-1.22465e-16,-1.22465e-16,-1,70.5281,1338.63)">
            <path d="M241.404,660.697L241.781,683.564" style="fill:rgb(0,0,255);stroke:rgb(0,0,255);stroke-width:1px;"/>
        </g>
        <g transform="matrix(1,-1.22465e-16,-1.22465e-16,-1,94.1615,1338.81)">
            <path d="M241.404,660.697L241.781,683.564" style="fill:rgb(0,0,255);stroke:rgb(0,0,255);stroke-width:1px;"/>
        </g>
        <g transform="matrix(1,-1.22465e-16,-1.22465e-16,-1,117.599,1338.73)">
            <path d="M241.404,660.697L241.781,683.564" style="fill:rgb(0,0,255);stroke:rgb(0,0,255);stroke-width:1px;"/>
        </g>
        <g transform="matrix(1,-1.22465e-16,-1.22465e-16,-1,140.834,1339.44)">
            <path d="M241.404,660.697L241.781,683.564" style="fill:rgb(0,0,255);stroke:rgb(0,0,255);stroke-width:1px;"/>
        </g>
        <g transform="matrix(1,-1.22465e-16,-1.22465e-16,-1,164.405,1339.33)">
            <path d="M241.404,660.697L241.781,683.564" style="fill:rgb(0,0,255);stroke:rgb(0,0,255);stroke-width:1px;"/>
        </g>
        <g transform="matrix(1,-1.22465e-16,-1.22465e-16,-1,187.865,1339.09)">
            <path d="M241.404,660.697L241.781,683.564" style="fill:rgb(0,0,255);stroke:rgb(0,0,255);stroke-width:1px;"/>
        </g>
        <g transform="matrix(1,-1.22465e-16,-1.22465e-16,-1,211.498,1339.26)">
            <path d="M241.404,660.697L241.781,683.564" style="fill:rgb(0,0,255);stroke:rgb(0,0,255);stroke-width:1px;"/>
        </g>
        <g transform="matrix(1,-1.22465e-16,-1.22465e-16,-1,258.441,1339.05)">
            <path d="M241.404,660.697L241.781,683.564" style="fill:rgb(0,0,255);stroke:rgb(0,0,255);stroke-width:1px;"/>
        </g>
        <g transform="matrix(1,-1.22465e-16,-1.22465e-16,-1,282.012,1338.94)">
            <path d="M241.404,660.697L241.781,683.564" style="fill:rgb(0,0,255);stroke:rgb(0,0,255);stroke-width:1px;"/>
        </g>
        <g transform="matrix(1,-1.22465e-16,-1.22465e-16,-1,305.472,1338.69)">
            <path d="M241.404,660.697L241.781,683.564" style="fill:rgb(0,0,255);stroke:rgb(0,0,255);stroke-width:1px;"/>
        </g>
        <g transform="matrix(1,-1.22465e-16,-1.22465e-16,-1,329.105,1338.87)">
            <path d="M241.404,660.697L241.781,683.564" style="fill:rgb(0,0,255);stroke:rgb(0,0,255);stroke-width:1px;"/>
        </g>
        <g transform="matrix(1,-1.22465e-16,-1.22465e-16,-1,352.543,1338.79)">
            <path d="M241.404,660.697L241.781,683.564" style="fill:rgb(0,0,255);stroke:rgb(0,0,255);stroke-width:1px;"/>
        </g>
        <g transform="matrix(1,-1.22465e-16,-1.22465e-16,-1,376.062,1338.79)">
            <path d="M241.404,660.697L241.781,683.564" style="fill:rgb(0,0,255);stroke:rgb(0,0,255);stroke-width:1px;"/>
        </g>
        <g transform="matrix(1,-1.22465e-16,-1.22465e-16,-1,399.521,1338.55)">
            <path d="M241.404,660.697L241.781,683.564" style="fill:rgb(0,0,255);stroke:rgb(0,0,255);stroke-width:1px;"/>
        </g>
        <g transform="matrix(1,-1.22465e-16,-1.22465e-16,-1,423.155,1338.73)">
            <path d="M241.404,660.697L241.781,683.564" style="fill:rgb(0,0,255);stroke:rgb(0,0,255);stroke-width:1px;"/>
        </g>
        <g transform="matrix(1,-1.22465e-16,-1.22465e-16,-1,446.592,1338.65)">
            <path d="M241.404,660.697L241.781,683.564" style="fill:rgb(0,0,255);stroke:rgb(0,0,255);stroke-width:1px;"/>
        </g>
        <g transform="matrix(0.858669,0,0,0.858669,96.7136,99.5709)">
            <text x="696.247px" y="705.833px" style="font-family:'EdwardianScriptITC', 'Edwardian Script ITC', cursive;font-stretch:semi-expanded;font-size:50px;fill:rgb(0,0,255);">x</text>
        </g>
        <g transform="matrix(0.858669,0,0,0.858669,-160.539,-160.328)">
            <text x="696.247px" y="705.833px" style="font-family:'EdwardianScriptITC', 'Edwardian Script ITC', cursive;font-stretch:semi-expanded;font-size:50px;fill:rgb(255,0,0);">y</text>
        </g>
        <path d="M548.011,667.027L547.973,504.917" style="fill:none;stroke:rgb(195,195,195);stroke-width:1.87px;stroke-dasharray:1.87,3.75,0,0;"/>
        <g transform="matrix(1,0,0,1,497.996,144.456)">
            <text x="66.837px" y="397.367px" style="font-family:'ArialMT', 'Arial', sans-serif;font-size:50px;fill:rgb(6,136,0);">v</text>
            <text x="91.837px" y="397.367px" style="font-family:'ArialMT', 'Arial', sans-serif;font-size:20.833px;fill:rgb(6,136,0);">1</text>
        </g>
        <g transform="matrix(1,0,0,1,507.937,129.512)">
            <path d="M57.519,378.405L80.905,378.084L75.515,371.322" style="fill:none;stroke:rgb(6,136,0);stroke-width:1.87px;"/>
        </g>
    </g>
</svg>
