<?xml version="1.0" encoding="UTF-8" standalone="no"?>
<!DOCTYPE svg PUBLIC "-//W3C//DTD SVG 1.1//EN" "http://www.w3.org/Graphics/SVG/1.1/DTD/svg11.dtd">
<svg width="100%" height="100%" viewBox="0 0 544 625" version="1.1" xmlns="http://www.w3.org/2000/svg" xmlns:xlink="http://www.w3.org/1999/xlink" xml:space="preserve" style="fill-rule:evenodd;clip-rule:evenodd;stroke-linecap:round;stroke-linejoin:round;stroke-miterlimit:1.5;">
    <g transform="matrix(1,0,0,1,-911.552,-310.025)">
        <g transform="matrix(1.05564,0,0,1.06789,671.608,-70.0554)">
            <path d="M741.69,483.04C741.69,412.879 684.067,355.917 613.092,355.917L355.895,355.917C284.92,355.917 227.297,412.879 227.297,483.04L227.297,813.14C227.297,883.301 284.92,940.263 355.895,940.263L613.092,940.263C684.067,940.263 741.69,883.301 741.69,813.14L741.69,483.04Z" style="fill:rgb(228,228,228);"/>
        </g>
        <g transform="matrix(-6.12323e-17,-1,-1,6.12323e-17,1845.65,1140.14)">
            <g transform="matrix(-0.000946358,-0.999999,0.999999,-0.000946358,-527.304,1698.4)">
                <g transform="matrix(0.577455,0,0,-0.448841,446.621,1801.58)">
                    <path d="M1003.83,1225.24L1023.55,1266.82L984.12,1266.82L1003.83,1225.24Z" style="fill:rgb(255,0,0);stroke:rgb(255,0,0);stroke-width:1.67px;"/>
                </g>
                <g transform="matrix(-0.589786,2.1684e-19,4.33681e-19,1.4757,1631.71,-587.075)">
                    <path d="M1026.37,915.269L1026.85,1234.12" style="fill:rgb(255,0,0);stroke:rgb(255,0,0);stroke-width:5.56px;"/>
                </g>
                <g transform="matrix(-0.000946359,1,-1,-0.000946359,1697.9,528.911)">
                    <path d="M241.404,660.697L241.781,683.564" style="fill:none;stroke:rgb(255,0,0);stroke-width:1px;"/>
                </g>
            </g>
            <g transform="matrix(1,0,0,1,23.4976,0.21754)">
                <path d="M241.404,660.697L241.781,683.564" style="fill:none;stroke:rgb(255,0,0);stroke-width:1px;"/>
            </g>
            <g transform="matrix(1,0,0,1,47.0684,0.331299)">
                <path d="M241.404,660.697L241.781,683.564" style="fill:none;stroke:rgb(255,0,0);stroke-width:1px;"/>
            </g>
            <g transform="matrix(1,0,0,1,70.5281,0.573454)">
                <path d="M241.404,660.697L241.781,683.564" style="fill:none;stroke:rgb(255,0,0);stroke-width:1px;"/>
            </g>
            <g transform="matrix(1,0,0,1,94.1615,0.399156)">
                <path d="M241.404,660.697L241.781,683.564" style="fill:none;stroke:rgb(255,0,0);stroke-width:1px;"/>
            </g>
            <g transform="matrix(1,0,0,1,117.599,0.472999)">
                <path d="M241.404,660.697L241.781,683.564" style="fill:none;stroke:rgb(255,0,0);stroke-width:1px;"/>
            </g>
            <g transform="matrix(1,0,0,1,140.834,-0.234916)">
                <path d="M241.404,660.697L241.781,683.564" style="fill:none;stroke:rgb(255,0,0);stroke-width:1px;"/>
            </g>
            <g transform="matrix(1,0,0,1,164.405,-0.121157)">
                <path d="M241.404,660.697L241.781,683.564" style="fill:none;stroke:rgb(255,0,0);stroke-width:1px;"/>
            </g>
            <g transform="matrix(1,0,0,1,187.865,0.120997)">
                <path d="M241.404,660.697L241.781,683.564" style="fill:none;stroke:rgb(255,0,0);stroke-width:1px;"/>
            </g>
            <g transform="matrix(1,0,0,1,211.498,-0.0533007)">
                <path d="M241.404,660.697L241.781,683.564" style="fill:none;stroke:rgb(255,0,0);stroke-width:1px;"/>
            </g>
            <g transform="matrix(1,0,0,1,234.936,0.0205431)">
                <path d="M241.404,660.697L241.781,683.564" style="fill:none;stroke:rgb(255,0,0);stroke-width:1px;"/>
            </g>
            <g transform="matrix(1,0,0,1,258.441,0.155827)">
                <path d="M241.404,660.697L241.781,683.564" style="fill:none;stroke:rgb(255,0,0);stroke-width:1px;"/>
            </g>
            <g transform="matrix(1,0,0,1,282.012,0.269587)">
                <path d="M241.404,660.697L241.781,683.564" style="fill:none;stroke:rgb(255,0,0);stroke-width:1px;"/>
            </g>
            <g transform="matrix(1,0,0,1,305.472,0.511741)">
                <path d="M241.404,660.697L241.781,683.564" style="fill:none;stroke:rgb(255,0,0);stroke-width:1px;"/>
            </g>
            <g transform="matrix(1,0,0,1,329.105,0.337443)">
                <path d="M241.404,660.697L241.781,683.564" style="fill:none;stroke:rgb(255,0,0);stroke-width:1px;"/>
            </g>
            <g transform="matrix(1,0,0,1,352.543,0.411287)">
                <path d="M241.404,660.697L241.781,683.564" style="fill:none;stroke:rgb(255,0,0);stroke-width:1px;"/>
            </g>
            <g transform="matrix(1,0,0,1,376.062,0.412576)">
                <path d="M241.404,660.697L241.781,683.564" style="fill:none;stroke:rgb(255,0,0);stroke-width:1px;"/>
            </g>
            <g transform="matrix(1,0,0,1,399.521,0.65473)">
                <path d="M241.404,660.697L241.781,683.564" style="fill:none;stroke:rgb(255,0,0);stroke-width:1px;"/>
            </g>
            <g transform="matrix(1,0,0,1,423.155,0.480432)">
                <path d="M241.404,660.697L241.781,683.564" style="fill:none;stroke:rgb(255,0,0);stroke-width:1px;"/>
            </g>
            <g transform="matrix(1,0,0,1,446.592,0.554276)">
                <path d="M241.404,660.697L241.781,683.564" style="fill:none;stroke:rgb(255,0,0);stroke-width:1px;"/>
            </g>
        </g>
        <g transform="matrix(1,0,0,1,699.289,-6.22027)">
            <path d="M382.557,528.419L472.247,529.058" style="fill:none;stroke:rgb(195,195,195);stroke-width:1.87px;stroke-dasharray:1.87,3.75,0,0;"/>
        </g>
        <g transform="matrix(1,0,0,1,702.353,311.156)">
            <path d="M287.514,529.15L472.247,529.058" style="fill:none;stroke:rgb(195,195,195);stroke-width:1.87px;stroke-dasharray:1.87,3.75,0,0;"/>
        </g>
        <g transform="matrix(-0.000946358,0.999999,0.999999,0.000946358,171.985,-365.417)">
            <g transform="matrix(0.603578,0,1.53381e-19,-0.481212,419.872,1841.94)">
                <path d="M1003.83,1225.24L1023.55,1266.82L984.12,1266.82L1003.83,1225.24Z" style="fill:rgb(0,0,255);stroke:rgb(0,0,255);stroke-width:1.67px;"/>
            </g>
            <g transform="matrix(-0.589786,2.1684e-19,4.33681e-19,1.4757,1631.71,-587.075)">
                <path d="M1026.37,915.269L1026.85,1234.12" style="fill:rgb(0,0,255);stroke:rgb(0,0,255);stroke-width:5.56px;"/>
            </g>
            <g transform="matrix(-0.000946359,1,-1,-0.000946359,1697.9,528.911)">
                <path d="M241.404,660.697L241.781,683.564" style="fill:rgb(0,0,255);stroke:rgb(0,0,255);stroke-width:1px;"/>
            </g>
        </g>
        <g transform="matrix(0.486003,-0.31045,-0.181869,-0.284712,812.89,1197.21)">
            <g transform="matrix(0.603578,0,1.53381e-19,-0.481212,419.872,1841.94)">
                <path d="M1003.83,1225.24L1023.55,1266.82L984.12,1266.82L1003.83,1225.24Z" style="fill:rgb(6,136,0);stroke:rgb(6,136,0);stroke-width:1.67px;"/>
            </g>
            <g transform="matrix(-0.589786,2.1684e-19,4.33681e-19,1.4757,1631.71,-587.075)">
                <path d="M1026.37,915.269L1026.85,1234.12" style="fill:rgb(6,136,0);stroke:rgb(6,136,0);stroke-width:5.56px;"/>
            </g>
        </g>
        <g transform="matrix(1,-1.22465e-16,-1.22465e-16,-1,722.786,1332.77)">
            <path d="M241.404,660.697L241.781,683.564" style="fill:rgb(0,0,255);stroke:rgb(0,0,255);stroke-width:1px;"/>
        </g>
        <g transform="matrix(1,-1.22465e-16,-1.22465e-16,-1,746.357,1332.65)">
            <path d="M241.404,660.697L241.781,683.564" style="fill:rgb(0,0,255);stroke:rgb(0,0,255);stroke-width:1px;"/>
        </g>
        <g transform="matrix(1,-1.22465e-16,-1.22465e-16,-1,769.817,1332.41)">
            <path d="M241.404,660.697L241.781,683.564" style="fill:rgb(0,0,255);stroke:rgb(0,0,255);stroke-width:1px;"/>
        </g>
        <g transform="matrix(1,-1.22465e-16,-1.22465e-16,-1,793.45,1332.59)">
            <path d="M241.404,660.697L241.781,683.564" style="fill:rgb(0,0,255);stroke:rgb(0,0,255);stroke-width:1px;"/>
        </g>
        <g transform="matrix(1,-1.22465e-16,-1.22465e-16,-1,816.888,1332.51)">
            <path d="M241.404,660.697L241.781,683.564" style="fill:rgb(0,0,255);stroke:rgb(0,0,255);stroke-width:1px;"/>
        </g>
        <g transform="matrix(1,-1.22465e-16,-1.22465e-16,-1,840.123,1333.22)">
            <path d="M241.404,660.697L241.781,683.564" style="fill:rgb(0,0,255);stroke:rgb(0,0,255);stroke-width:1px;"/>
        </g>
        <g transform="matrix(1,-1.22465e-16,-1.22465e-16,-1,863.694,1333.11)">
            <path d="M241.404,660.697L241.781,683.564" style="fill:rgb(0,0,255);stroke:rgb(0,0,255);stroke-width:1px;"/>
        </g>
        <g transform="matrix(1,-1.22465e-16,-1.22465e-16,-1,887.153,1332.86)">
            <path d="M241.404,660.697L241.781,683.564" style="fill:rgb(0,0,255);stroke:rgb(0,0,255);stroke-width:1px;"/>
        </g>
        <g transform="matrix(1,-1.22465e-16,-1.22465e-16,-1,910.787,1333.04)">
            <path d="M241.404,660.697L241.781,683.564" style="fill:rgb(0,0,255);stroke:rgb(0,0,255);stroke-width:1px;"/>
        </g>
        <g transform="matrix(1,-1.22465e-16,-1.22465e-16,-1,957.73,1332.83)">
            <path d="M241.404,660.697L241.781,683.564" style="fill:rgb(0,0,255);stroke:rgb(0,0,255);stroke-width:1px;"/>
        </g>
        <g transform="matrix(1,-1.22465e-16,-1.22465e-16,-1,981.301,1332.72)">
            <path d="M241.404,660.697L241.781,683.564" style="fill:rgb(0,0,255);stroke:rgb(0,0,255);stroke-width:1px;"/>
        </g>
        <g transform="matrix(1,-1.22465e-16,-1.22465e-16,-1,1004.76,1332.47)">
            <path d="M241.404,660.697L241.781,683.564" style="fill:rgb(0,0,255);stroke:rgb(0,0,255);stroke-width:1px;"/>
        </g>
        <g transform="matrix(1,-1.22465e-16,-1.22465e-16,-1,1028.39,1332.65)">
            <path d="M241.404,660.697L241.781,683.564" style="fill:rgb(0,0,255);stroke:rgb(0,0,255);stroke-width:1px;"/>
        </g>
        <g transform="matrix(1,-1.22465e-16,-1.22465e-16,-1,1051.83,1332.57)">
            <path d="M241.404,660.697L241.781,683.564" style="fill:rgb(0,0,255);stroke:rgb(0,0,255);stroke-width:1px;"/>
        </g>
        <g transform="matrix(1,-1.22465e-16,-1.22465e-16,-1,1075.35,1332.57)">
            <path d="M241.404,660.697L241.781,683.564" style="fill:rgb(0,0,255);stroke:rgb(0,0,255);stroke-width:1px;"/>
        </g>
        <g transform="matrix(1,-1.22465e-16,-1.22465e-16,-1,1098.81,1332.33)">
            <path d="M241.404,660.697L241.781,683.564" style="fill:rgb(0,0,255);stroke:rgb(0,0,255);stroke-width:1px;"/>
        </g>
        <g transform="matrix(1,-1.22465e-16,-1.22465e-16,-1,1122.44,1332.51)">
            <path d="M241.404,660.697L241.781,683.564" style="fill:rgb(0,0,255);stroke:rgb(0,0,255);stroke-width:1px;"/>
        </g>
        <g transform="matrix(1,-1.22465e-16,-1.22465e-16,-1,1145.88,1332.43)">
            <path d="M241.404,660.697L241.781,683.564" style="fill:rgb(0,0,255);stroke:rgb(0,0,255);stroke-width:1px;"/>
        </g>
        <g transform="matrix(0.858669,0,0,0.858669,796.002,93.3507)">
            <text x="696.247px" y="705.833px" style="font-family:'EdwardianScriptITC', 'Edwardian Script ITC', cursive;font-stretch:semi-expanded;font-size:50px;fill:rgb(0,0,255);">x</text>
        </g>
        <g transform="matrix(0.858669,0,0,0.858669,538.75,-166.548)">
            <text x="696.247px" y="705.833px" style="font-family:'EdwardianScriptITC', 'Edwardian Script ITC', cursive;font-stretch:semi-expanded;font-size:50px;fill:rgb(255,0,0);">y</text>
        </g>
        <g transform="matrix(1,0,0,1,699.289,-6.22027)">
            <path d="M382.755,664.591L382.227,529.063" style="fill:none;stroke:rgb(195,195,195);stroke-width:1.87px;stroke-dasharray:1.87,3.75,0,0;"/>
        </g>
        <g transform="matrix(1,0,0,1,605.777,133.395)">
            <path d="M382.873,706.843L382.227,529.063" style="fill:none;stroke:rgb(195,195,195);stroke-width:1.87px;stroke-dasharray:1.87,3.75,0,0;"/>
        </g>
        <g transform="matrix(1,0,0,1,965.44,134.303)">
            <text x="66.837px" y="397.367px" style="font-family:'ArialMT', 'Arial', sans-serif;font-size:50px;fill:rgb(6,136,0);">v</text>
            <text x="91.837px" y="397.367px" style="font-family:'ArialMT', 'Arial', sans-serif;font-size:20.833px;fill:rgb(6,136,0);">2</text>
        </g>
        <g transform="matrix(1,0,0,1,976.721,122.444)">
            <path d="M57.519,378.405L80.905,378.084L75.515,371.322" style="fill:none;stroke:rgb(6,136,0);stroke-width:1.87px;"/>
        </g>
        <g transform="matrix(1,0,0,1,798.061,276.229)">
            <path d="M382.557,528.419L472.247,529.058" style="fill:none;stroke:rgb(195,195,195);stroke-width:1.87px;stroke-dasharray:1.87,3.75,0,0;"/>
        </g>
        <g transform="matrix(-0.481025,0.307269,0.182759,0.286105,1532.65,131.664)">
            <g transform="matrix(0.603578,0,1.53381e-19,-0.481212,419.872,1841.94)">
                <path d="M1003.83,1225.24L1023.55,1266.82L984.12,1266.82L1003.83,1225.24Z" style="fill:rgb(6,136,0);stroke:rgb(6,136,0);stroke-width:1.67px;"/>
            </g>
            <g transform="matrix(-0.589786,2.1684e-19,4.33681e-19,1.4757,1631.71,-587.075)">
                <path d="M1026.37,915.269L1026.85,1234.12" style="fill:rgb(6,136,0);stroke:rgb(6,136,0);stroke-width:5.56px;"/>
            </g>
        </g>
        <g transform="matrix(-0.481025,0.307269,0.182759,0.286105,1532.65,131.664)">
            <g transform="matrix(0.603578,0,1.53381e-19,-0.481212,419.872,1841.94)">
                <path d="M1003.83,1225.24L1023.55,1266.82L984.12,1266.82L1003.83,1225.24Z" style="fill:rgb(6,136,0);stroke:rgb(6,136,0);stroke-width:1.67px;"/>
            </g>
            <g transform="matrix(-0.589786,2.1684e-19,4.33681e-19,1.4757,1631.71,-587.075)">
                <path d="M1026.37,915.269L1026.85,1234.12" style="fill:rgb(6,136,0);stroke:rgb(6,136,0);stroke-width:5.56px;"/>
            </g>
        </g>
        <g transform="matrix(-0.481025,0.307269,0.182759,0.286105,1532.65,131.664)">
            <g transform="matrix(0.603578,0,1.53381e-19,-0.481212,419.872,1841.94)">
                <path d="M1003.83,1225.24L1023.55,1266.82L984.12,1266.82L1003.83,1225.24Z" style="fill:rgb(6,136,0);stroke:rgb(6,136,0);stroke-width:1.67px;"/>
            </g>
            <g transform="matrix(0.107018,-0.998708,-0.281682,-0.0853221,1710.64,2002.67)">
                <path d="M1003.83,1225.24L1023.55,1266.82L984.12,1266.82L1003.83,1225.24Z" style="fill:rgb(6,136,0);stroke:rgb(6,136,0);stroke-width:1.67px;"/>
            </g>
            <g transform="matrix(-0.589786,2.1684e-19,4.33681e-19,1.4757,1631.71,-587.075)">
                <path d="M1021.52,905.263L283.001,1003.73" style="fill:rgb(6,136,0);stroke:rgb(6,136,0);stroke-width:5.56px;"/>
            </g>
        </g>
        <g transform="matrix(1,-1.22465e-16,-1.22465e-16,-1,910.948,1334.04)">
            <path d="M241.404,660.697L241.781,683.564" style="fill:rgb(0,0,255);stroke:rgb(0,0,255);stroke-width:1px;"/>
        </g>
        <g transform="matrix(1,-1.22465e-16,-1.22465e-16,-1,957.891,1333.83)">
            <path d="M241.404,660.697L241.781,683.564" style="fill:rgb(0,0,255);stroke:rgb(0,0,255);stroke-width:1px;"/>
        </g>
        <g transform="matrix(1,-1.22465e-16,-1.22465e-16,-1,981.462,1333.72)">
            <path d="M241.404,660.697L241.781,683.564" style="fill:rgb(0,0,255);stroke:rgb(0,0,255);stroke-width:1px;"/>
        </g>
        <g transform="matrix(1,-1.22465e-16,-1.22465e-16,-1,1004.92,1333.48)">
            <path d="M241.404,660.697L241.781,683.564" style="fill:rgb(0,0,255);stroke:rgb(0,0,255);stroke-width:1px;"/>
        </g>
        <g transform="matrix(1,-1.22465e-16,-1.22465e-16,-1,1028.55,1333.65)">
            <path d="M241.404,660.697L241.781,683.564" style="fill:rgb(0,0,255);stroke:rgb(0,0,255);stroke-width:1px;"/>
        </g>
        <g transform="matrix(1,-1.22465e-16,-1.22465e-16,-1,1051.99,1333.58)">
            <path d="M241.404,660.697L241.781,683.564" style="fill:rgb(0,0,255);stroke:rgb(0,0,255);stroke-width:1px;"/>
        </g>
        <g transform="matrix(1,-1.22465e-16,-1.22465e-16,-1,1075.51,1333.58)">
            <path d="M241.404,660.697L241.781,683.564" style="fill:rgb(0,0,255);stroke:rgb(0,0,255);stroke-width:1px;"/>
        </g>
        <g transform="matrix(1,-1.22465e-16,-1.22465e-16,-1,1098.97,1333.33)">
            <path d="M241.404,660.697L241.781,683.564" style="fill:rgb(0,0,255);stroke:rgb(0,0,255);stroke-width:1px;"/>
        </g>
        <g transform="matrix(1,0,0,1,887.96,132.726)">
            <path d="M382.755,664.591L382.227,529.063" style="fill:none;stroke:rgb(195,195,195);stroke-width:1.87px;stroke-dasharray:1.87,3.75,0,0;"/>
        </g>
        <g transform="matrix(1,0,0,1,1211.32,428.707)">
            <text x="66.837px" y="397.367px" style="font-family:'ArialMT', 'Arial', sans-serif;font-size:50px;fill:rgb(6,136,0);">v</text>
            <text x="91.837px" y="397.367px" style="font-family:'ArialMT', 'Arial', sans-serif;font-size:20.833px;fill:rgb(6,136,0);">3</text>
        </g>
        <g transform="matrix(1,0,0,1,1220.69,415.171)">
            <path d="M57.519,378.405L80.905,378.084L75.515,371.322" style="fill:none;stroke:rgb(6,136,0);stroke-width:1.87px;"/>
        </g>
        <g transform="matrix(1,0,0,1,947.98,464.247)">
            <text x="66.837px" y="397.367px" style="font-family:'ArialMT', 'Arial', sans-serif;font-size:50px;fill:rgb(6,136,0);">v</text>
            <text x="91.837px" y="397.367px" style="font-family:'ArialMT', 'Arial', sans-serif;font-size:20.833px;fill:rgb(6,136,0);">4</text>
        </g>
        <g transform="matrix(1,0,0,1,957.353,450.711)">
            <path d="M57.519,378.405L80.905,378.084L75.515,371.322" style="fill:none;stroke:rgb(6,136,0);stroke-width:1.87px;"/>
        </g>
        <g transform="matrix(1,0,0,1,-82.3872,-834.424)">
            <text x="1062.89px" y="1229.2px" style="font-family:'ArialMT', 'Arial', sans-serif;font-size:58.333px;">Autoevaluación</text>
        </g>
    </g>
</svg>
