<?xml version="1.0" encoding="UTF-8" standalone="no"?>
<!DOCTYPE svg PUBLIC "-//W3C//DTD SVG 1.1//EN" "http://www.w3.org/Graphics/SVG/1.1/DTD/svg11.dtd">
<svg width="100%" height="100%" viewBox="0 0 552 607" version="1.1" xmlns="http://www.w3.org/2000/svg" xmlns:xlink="http://www.w3.org/1999/xlink" xml:space="preserve" style="fill-rule:evenodd;clip-rule:evenodd;stroke-linecap:round;stroke-linejoin:round;stroke-miterlimit:1.5;">
    <g transform="matrix(1,0,0,1,-1499.1,-336.556)">
        <g transform="matrix(1.18,0,0,3.47093,1283.65,-378.08)">
            <path d="M649.642,245.587C649.642,223.679 597.323,205.892 532.879,205.892L299.353,205.892C234.91,205.892 182.59,223.679 182.59,245.587L182.59,340.797C182.59,362.706 234.91,380.493 299.353,380.493L532.879,380.493C597.323,380.493 649.642,362.706 649.642,340.797L649.642,245.587Z" style="fill:rgb(228,228,228);"/>
        </g>
        <g transform="matrix(1,0,0,1,1518.27,-44.575)">
            <text x="84.038px" y="597.426px" style="font-family:'ArialMT', 'Arial', sans-serif;font-size:50px;">= (</text>
            <text x="143.779px" y="597.426px" style="font-family:'ArialMT', 'Arial', sans-serif;font-size:50px;fill:rgb(0,0,255);">-4</text>
            <text x="188.237px" y="597.426px" style="font-family:'ArialMT', 'Arial', sans-serif;font-size:50px;">,</text>
            <text x="216.02px" y="597.426px" style="font-family:'ArialMT', 'Arial', sans-serif;font-size:50px;fill:rgb(255,0,0);">6</text>
            <text x="243.828px" y="597.426px" style="font-family:'ArialMT', 'Arial', sans-serif;font-size:50px;">) =</text>
        </g>
        <g transform="matrix(1,0,0,2.59347,1742.27,-981.111)">
            <text x="84.038px" y="597.426px" style="font-family:'ArialMT', 'Arial', sans-serif;font-size:50px;">(   )</text>
        </g>
        <g transform="matrix(1,0,0,1,1662.78,51.653)">
            <text x="191.619px" y="533.219px" style="font-family:'ArialMT', 'Arial', sans-serif;font-size:50px;fill:rgb(255,0,0);">6</text>
        </g>
        <g transform="matrix(1,0,0,1,1649.62,-26.8033)">
            <text x="194.303px" y="548.562px" style="font-family:'ArialMT', 'Arial', sans-serif;font-size:50px;fill:rgb(0,0,255);">-4</text>
        </g>
        <g transform="matrix(1,0,0,1,618.078,241.732)">
            <g transform="matrix(1,0,0,1,871.632,-89.8578)">
                <text x="66.837px" y="397.367px" style="font-family:'ArialMT', 'Arial', sans-serif;font-size:50px;fill:rgb(6,136,0);">v</text>
                <text x="91.837px" y="397.367px" style="font-family:'ArialMT', 'Arial', sans-serif;font-size:20.833px;fill:rgb(6,136,0);">2</text>
            </g>
            <g transform="matrix(1,0,0,1,881.573,-104.802)">
                <path d="M57.519,378.405L80.905,378.084L75.515,371.322" style="fill:none;stroke:rgb(6,136,0);stroke-width:1.87px;"/>
            </g>
        </g>
        <g transform="matrix(1,0,0,1,1520.28,104.629)">
            <text x="84.038px" y="597.426px" style="font-family:'ArialMT', 'Arial', sans-serif;font-size:50px;">= (</text>
            <text x="143.779px" y="597.426px" style="font-family:'ArialMT', 'Arial', sans-serif;font-size:50px;fill:rgb(0,0,255);">4</text>
            <text x="171.587px" y="597.426px" style="font-family:'ArialMT', 'Arial', sans-serif;font-size:50px;">,</text>
            <text x="199.37px" y="597.426px" style="font-family:'ArialMT', 'Arial', sans-serif;font-size:50px;fill:rgb(255,0,0);">-6</text>
            <text x="243.828px" y="597.426px" style="font-family:'ArialMT', 'Arial', sans-serif;font-size:50px;">) =</text>
        </g>
        <g transform="matrix(1,0,0,2.59347,1744.29,-831.908)">
            <text x="84.038px" y="597.426px" style="font-family:'ArialMT', 'Arial', sans-serif;font-size:50px;">(   )</text>
        </g>
        <g transform="matrix(1,0,0,1,1650.8,200.857)">
            <text x="191.619px" y="533.219px" style="font-family:'ArialMT', 'Arial', sans-serif;font-size:50px;fill:rgb(255,0,0);">-6</text>
        </g>
        <g transform="matrix(1,0,0,1,1661.64,122.4)">
            <text x="194.303px" y="548.562px" style="font-family:'ArialMT', 'Arial', sans-serif;font-size:50px;fill:rgb(0,0,255);">4</text>
        </g>
        <g transform="matrix(1,0,0,1,620.094,390.936)">
            <g transform="matrix(1,0,0,1,871.632,-89.8578)">
                <text x="66.837px" y="397.367px" style="font-family:'ArialMT', 'Arial', sans-serif;font-size:50px;fill:rgb(6,136,0);">v</text>
                <text x="91.837px" y="397.367px" style="font-family:'ArialMT', 'Arial', sans-serif;font-size:20.833px;fill:rgb(6,136,0);">3</text>
            </g>
            <g transform="matrix(1,0,0,1,881.573,-104.802)">
                <path d="M57.519,378.405L80.905,378.084L75.515,371.322" style="fill:none;stroke:rgb(6,136,0);stroke-width:1.87px;"/>
            </g>
        </g>
        <g transform="matrix(1,0,0,2.59347,1744.29,-831.908)">
            <text x="84.038px" y="597.426px" style="font-family:'ArialMT', 'Arial', sans-serif;font-size:50px;">(   )</text>
        </g>
        <g transform="matrix(1,0,0,1,1517.73,246.425)">
            <text x="84.038px" y="597.426px" style="font-family:'ArialMT', 'Arial', sans-serif;font-size:50px;">= (</text>
            <text x="143.779px" y="597.426px" style="font-family:'ArialMT', 'Arial', sans-serif;font-size:50px;fill:rgb(0,0,255);">-8</text>
            <text x="188.237px" y="597.426px" style="font-family:'ArialMT', 'Arial', sans-serif;font-size:50px;">,</text>
            <text x="216.02px" y="597.426px" style="font-family:'ArialMT', 'Arial', sans-serif;font-size:50px;fill:rgb(255,0,0);">-7.5</text>
            <text x="302.178px" y="597.426px" style="font-family:'ArialMT', 'Arial', sans-serif;font-size:50px;">) =</text>
        </g>
        <g transform="matrix(1,0,0,2.59347,1798.67,-688.301)">
            <text x="84.038px" y="597.426px" style="font-family:'ArialMT', 'Arial', sans-serif;font-size:50px;">(      )</text>
        </g>
        <g transform="matrix(1,0,0,1,620.094,390.936)">
            <g transform="matrix(1,0,0,1,871.632,-89.8578)">
                <text x="66.837px" y="397.367px" style="font-family:'ArialMT', 'Arial', sans-serif;font-size:50px;fill:rgb(6,136,0);">v</text>
                <text x="91.837px" y="397.367px" style="font-family:'ArialMT', 'Arial', sans-serif;font-size:20.833px;fill:rgb(6,136,0);">3</text>
            </g>
            <g transform="matrix(1,0,0,1,881.573,-104.802)">
                <path d="M57.519,378.405L80.905,378.084L75.515,371.322" style="fill:none;stroke:rgb(6,136,0);stroke-width:1.87px;"/>
            </g>
        </g>
        <g transform="matrix(1,0,0,1,1705.82,343.982)">
            <text x="191.619px" y="533.219px" style="font-family:'ArialMT', 'Arial', sans-serif;font-size:50px;fill:rgb(255,0,0);">-7.5</text>
        </g>
        <g transform="matrix(1,0,0,1,1723.09,266.346)">
            <text x="194.303px" y="548.562px" style="font-family:'ArialMT', 'Arial', sans-serif;font-size:50px;fill:rgb(0,0,255);">-8</text>
        </g>
        <g transform="matrix(1,0,0,1,620.442,535.997)">
            <g transform="matrix(1,0,0,1,871.632,-89.8578)">
                <text x="66.837px" y="397.367px" style="font-family:'ArialMT', 'Arial', sans-serif;font-size:50px;fill:rgb(6,136,0);">v</text>
                <text x="91.837px" y="397.367px" style="font-family:'ArialMT', 'Arial', sans-serif;font-size:20.833px;fill:rgb(6,136,0);">4</text>
            </g>
            <g transform="matrix(1,0,0,1,881.573,-104.802)">
                <path d="M57.519,378.405L80.905,378.084L75.515,371.322" style="fill:none;stroke:rgb(6,136,0);stroke-width:1.87px;"/>
            </g>
        </g>
        <g transform="matrix(1,0,0,1,620.442,535.997)">
            <g transform="matrix(1,0,0,1,871.632,-89.8578)">
                <text x="66.837px" y="397.367px" style="font-family:'ArialMT', 'Arial', sans-serif;font-size:50px;fill:rgb(6,136,0);">v</text>
            </g>
            <g transform="matrix(1,0,0,1,881.573,-104.802)">
                <path d="M57.519,378.405L80.905,378.084L75.515,371.322" style="fill:none;stroke:rgb(6,136,0);stroke-width:1.87px;"/>
            </g>
        </g>
        <g transform="matrix(1,0,0,1,516.788,-803.255)">
            <text x="1062.89px" y="1229.2px" style="font-family:'ArialMT', 'Arial', sans-serif;font-size:58.333px;">Respuestas</text>
        </g>
    </g>
</svg>
