<?xml version="1.0" encoding="UTF-8" standalone="no"?>
<!DOCTYPE svg PUBLIC "-//W3C//DTD SVG 1.1//EN" "http://www.w3.org/Graphics/SVG/1.1/DTD/svg11.dtd">
<svg width="100%" height="100%" viewBox="0 0 530 599" version="1.1" xmlns="http://www.w3.org/2000/svg" xmlns:xlink="http://www.w3.org/1999/xlink" xml:space="preserve" style="fill-rule:evenodd;clip-rule:evenodd;stroke-linecap:round;stroke-linejoin:round;stroke-miterlimit:1.5;">
    <g transform="matrix(1,0,0,1,-984.256,-1136.17)">
        <g transform="matrix(1.02922,0,0,1.02399,750.316,771.713)">
            <path d="M741.69,485.172C741.69,413.834 684.067,355.917 613.092,355.917L355.895,355.917C284.92,355.917 227.297,413.834 227.297,485.172L227.297,811.007C227.297,882.346 284.92,940.263 355.895,940.263L613.092,940.263C684.067,940.263 741.69,882.346 741.69,811.007L741.69,485.172Z" style="fill:rgb(228,228,228);"/>
        </g>
        <g transform="matrix(-0.78935,-0.613944,-0.613944,0.78935,2017.61,1211.58)">
            <g transform="matrix(-0.000946358,-0.999999,0.999999,-0.000946358,-527.304,1698.4)">
                <g transform="matrix(0.577455,0,0,-0.448841,446.621,1801.58)">
                    <path d="M1003.83,1225.24L1023.55,1266.82L984.12,1266.82L1003.83,1225.24Z" style="fill:rgb(255,0,0);stroke:rgb(255,0,0);stroke-width:1.67px;"/>
                </g>
                <g transform="matrix(-0.589786,2.1684e-19,4.33681e-19,1.4757,1631.71,-587.075)">
                    <path d="M1026.37,915.269L1026.85,1234.12" style="fill:rgb(255,0,0);stroke:rgb(255,0,0);stroke-width:5.56px;"/>
                </g>
                <g transform="matrix(-0.000946359,1,-1,-0.000946359,1697.9,528.911)">
                    <path d="M241.404,660.697L241.781,683.564" style="fill:none;stroke:rgb(255,0,0);stroke-width:1px;"/>
                </g>
            </g>
            <g transform="matrix(1,0,0,1,23.4976,0.21754)">
                <path d="M241.404,660.697L241.781,683.564" style="fill:none;stroke:rgb(255,0,0);stroke-width:1px;"/>
            </g>
            <g transform="matrix(1,0,0,1,47.0684,0.331299)">
                <path d="M241.404,660.697L241.781,683.564" style="fill:none;stroke:rgb(255,0,0);stroke-width:1px;"/>
            </g>
            <g transform="matrix(1,0,0,1,70.5281,0.573454)">
                <path d="M241.404,660.697L241.781,683.564" style="fill:none;stroke:rgb(255,0,0);stroke-width:1px;"/>
            </g>
            <g transform="matrix(1,0,0,1,94.1615,0.399156)">
                <path d="M241.404,660.697L241.781,683.564" style="fill:none;stroke:rgb(255,0,0);stroke-width:1px;"/>
            </g>
            <g transform="matrix(1,0,0,1,117.599,0.472999)">
                <path d="M241.404,660.697L241.781,683.564" style="fill:none;stroke:rgb(255,0,0);stroke-width:1px;"/>
            </g>
            <g transform="matrix(1,0,0,1,140.834,-0.234916)">
                <path d="M241.404,660.697L241.781,683.564" style="fill:none;stroke:rgb(255,0,0);stroke-width:1px;"/>
            </g>
            <g transform="matrix(1,0,0,1,164.405,-0.121157)">
                <path d="M241.404,660.697L241.781,683.564" style="fill:none;stroke:rgb(255,0,0);stroke-width:1px;"/>
            </g>
            <g transform="matrix(1,0,0,1,187.865,0.120997)">
                <path d="M241.404,660.697L241.781,683.564" style="fill:none;stroke:rgb(255,0,0);stroke-width:1px;"/>
            </g>
            <g transform="matrix(1,0,0,1,211.498,-0.0533007)">
                <path d="M241.404,660.697L241.781,683.564" style="fill:none;stroke:rgb(255,0,0);stroke-width:1px;"/>
            </g>
            <g transform="matrix(1,0,0,1,234.936,0.0205431)">
                <path d="M241.404,660.697L241.781,683.564" style="fill:none;stroke:rgb(255,0,0);stroke-width:1px;"/>
            </g>
            <g transform="matrix(1,0,0,1,258.441,0.155827)">
                <path d="M241.404,660.697L241.781,683.564" style="fill:none;stroke:rgb(255,0,0);stroke-width:1px;"/>
            </g>
            <g transform="matrix(1,0,0,1,282.012,0.269587)">
                <path d="M241.404,660.697L241.781,683.564" style="fill:none;stroke:rgb(255,0,0);stroke-width:1px;"/>
            </g>
            <g transform="matrix(1,0,0,1,305.472,0.511741)">
                <path d="M241.404,660.697L241.781,683.564" style="fill:none;stroke:rgb(255,0,0);stroke-width:1px;"/>
            </g>
            <g transform="matrix(1,0,0,1,329.105,0.337443)">
                <path d="M241.404,660.697L241.781,683.564" style="fill:none;stroke:rgb(255,0,0);stroke-width:1px;"/>
            </g>
            <g transform="matrix(1,0,0,1,352.543,0.411287)">
                <path d="M241.404,660.697L241.781,683.564" style="fill:none;stroke:rgb(255,0,0);stroke-width:1px;"/>
            </g>
            <g transform="matrix(1,0,0,1,376.062,0.412576)">
                <path d="M241.404,660.697L241.781,683.564" style="fill:none;stroke:rgb(255,0,0);stroke-width:1px;"/>
            </g>
            <g transform="matrix(1,0,0,1,399.521,0.65473)">
                <path d="M241.404,660.697L241.781,683.564" style="fill:none;stroke:rgb(255,0,0);stroke-width:1px;"/>
            </g>
            <g transform="matrix(1,0,0,1,423.155,0.480432)">
                <path d="M241.404,660.697L241.781,683.564" style="fill:none;stroke:rgb(255,0,0);stroke-width:1px;"/>
            </g>
            <g transform="matrix(1,0,0,1,446.592,0.554276)">
                <path d="M241.404,660.697L241.781,683.564" style="fill:none;stroke:rgb(255,0,0);stroke-width:1px;"/>
            </g>
        </g>
        <g transform="matrix(1.38963,1.04023,2.78483,-3.72021,-801.059,3099.62)">
            <path d="M382.557,528.419L472.247,529.058" style="fill:none;stroke:rgb(195,195,195);stroke-width:0.53px;stroke-dasharray:0.53,1.07,0,0;"/>
        </g>
        <g transform="matrix(1.38963,1.04023,2.78483,-3.72021,-940.298,3028.31)">
            <path d="M382.557,528.419L472.247,529.058" style="fill:none;stroke:rgb(195,195,195);stroke-width:0.53px;stroke-dasharray:0.53,1.07,0,0;"/>
        </g>
        <g transform="matrix(1.38963,1.04023,2.78483,-3.72021,-940.298,3028.31)">
            <path d="M382.557,528.419L387.566,552.138" style="fill:none;stroke:rgb(195,195,195);stroke-width:0.53px;stroke-dasharray:0.53,1.07,0,0;"/>
        </g>
        <g transform="matrix(1.42962,0.984556,2.63578,-3.82727,-616.222,3164.29)">
            <path d="M382.557,528.419L387.048,550.322" style="fill:none;stroke:rgb(195,195,195);stroke-width:0.53px;stroke-dasharray:0.53,1.07,0,0;"/>
        </g>
        <g transform="matrix(1.42962,0.984556,2.63578,-3.82727,-551.946,3084.51)">
            <path d="M382.557,528.419L330.377,529.74" style="fill:none;stroke:rgb(195,195,195);stroke-width:0.53px;stroke-dasharray:0.53,1.07,0,0;"/>
        </g>
        <g transform="matrix(1.38963,1.04023,2.78483,-3.72021,-801.059,3099.62)">
            <path d="M474.66,545.558L474.138,529.167" style="fill:none;stroke:rgb(195,195,195);stroke-width:0.53px;stroke-dasharray:0.53,1.07,0,0;"/>
        </g>
        <g transform="matrix(-0.796246,-0.604972,-0.604972,0.796246,2681.06,1275.97)">
            <g transform="matrix(0.603578,0,1.53381e-19,-0.481212,419.872,1841.94)">
                <path d="M1003.83,1225.24L1023.55,1266.82L984.12,1266.82L1003.83,1225.24Z" style="fill:rgb(0,0,255);stroke:rgb(0,0,255);stroke-width:1.67px;"/>
            </g>
            <g transform="matrix(-0.589786,2.1684e-19,4.33681e-19,1.4757,1631.71,-587.075)">
                <path d="M1026.37,915.269L1026.85,1234.12" style="fill:rgb(0,0,255);stroke:rgb(0,0,255);stroke-width:5.56px;"/>
            </g>
            <g transform="matrix(-0.000946359,1,-1,-0.000946359,1697.9,528.911)">
                <path d="M241.404,660.697L241.781,683.564" style="fill:rgb(0,0,255);stroke:rgb(0,0,255);stroke-width:1px;"/>
            </g>
        </g>
        <g transform="matrix(-0.481025,0.307269,0.182759,0.286105,1605.19,931.149)">
            <g transform="matrix(0.599993,-0.110436,-0.0311482,-0.478354,494.543,1994.19)">
                <path d="M1003.83,1225.24L1023.55,1266.82L984.12,1266.82L1003.83,1225.24Z" style="fill:rgb(6,136,0);stroke:rgb(6,136,0);stroke-width:1.67px;"/>
            </g>
            <g transform="matrix(-0.589786,2.1684e-19,4.33681e-19,1.4757,1631.71,-587.075)">
                <path d="M1026.37,915.269L975.111,1266.18" style="fill:rgb(6,136,0);stroke:rgb(6,136,0);stroke-width:5.56px;"/>
            </g>
        </g>
        <g transform="matrix(0.0438742,-0.5691,-0.338491,-0.0260956,1463.41,2068.89)">
            <g transform="matrix(0.599699,0.114862,0.0323964,-0.47812,367.105,1786.21)">
                <path d="M1003.83,1225.24L1023.55,1266.82L984.12,1266.82L1003.83,1225.24Z" style="fill:rgb(6,136,0);stroke:rgb(6,136,0);stroke-width:1.67px;"/>
            </g>
            <g transform="matrix(-0.580987,-0.275033,-0.0775722,0.463202,1768.43,74.1482)">
                <path d="M1003.83,1225.24L1023.55,1266.82L984.12,1266.82L1003.83,1225.24Z" style="fill:rgb(6,136,0);stroke:rgb(6,136,0);stroke-width:1.67px;"/>
            </g>
            <g transform="matrix(-0.589786,2.1684e-19,4.33681e-19,1.4757,1631.71,-587.075)">
                <path d="M1026.37,915.269L1057.64,1282.49" style="fill:rgb(6,136,0);stroke:rgb(6,136,0);stroke-width:5.56px;"/>
            </g>
            <g transform="matrix(-0.589786,1.38778e-17,1.38778e-17,1.4757,1631.71,-587.075)">
                <path d="M1026.37,915.269L920.005,649.213" style="fill:rgb(6,136,0);stroke:rgb(6,136,0);stroke-width:5.56px;"/>
            </g>
        </g>
        <g transform="matrix(-0.604219,0.796819,0.796819,0.604219,995.112,688.783)">
            <path d="M241.404,660.697L241.781,683.564" style="fill:rgb(0,0,255);stroke:rgb(0,0,255);stroke-width:1px;"/>
        </g>
        <g transform="matrix(-0.604219,0.796819,0.796819,0.604219,980.96,707.633)">
            <path d="M241.404,660.697L241.781,683.564" style="fill:rgb(0,0,255);stroke:rgb(0,0,255);stroke-width:1px;"/>
        </g>
        <g transform="matrix(-0.604219,0.796819,0.796819,0.604219,966.978,726.473)">
            <path d="M241.404,660.697L241.781,683.564" style="fill:rgb(0,0,255);stroke:rgb(0,0,255);stroke-width:1px;"/>
        </g>
        <g transform="matrix(-0.604219,0.796819,0.796819,0.604219,952.56,745.199)">
            <path d="M241.404,660.697L241.781,683.564" style="fill:rgb(0,0,255);stroke:rgb(0,0,255);stroke-width:1px;"/>
        </g>
        <g transform="matrix(-0.604219,0.796819,0.796819,0.604219,938.457,763.919)">
            <path d="M241.404,660.697L241.781,683.564" style="fill:rgb(0,0,255);stroke:rgb(0,0,255);stroke-width:1px;"/>
        </g>
        <g transform="matrix(-0.604219,0.796819,0.796819,0.604219,923.854,782.005)">
            <path d="M241.404,660.697L241.781,683.564" style="fill:rgb(0,0,255);stroke:rgb(0,0,255);stroke-width:1px;"/>
        </g>
        <g transform="matrix(-0.604219,0.796819,0.796819,0.604219,909.703,800.856)">
            <path d="M241.404,660.697L241.781,683.564" style="fill:rgb(0,0,255);stroke:rgb(0,0,255);stroke-width:1px;"/>
        </g>
        <g transform="matrix(-0.604219,0.796819,0.796819,0.604219,895.721,819.695)">
            <path d="M241.404,660.697L241.781,683.564" style="fill:rgb(0,0,255);stroke:rgb(0,0,255);stroke-width:1px;"/>
        </g>
        <g transform="matrix(-0.604219,0.796819,0.796819,0.604219,881.302,838.421)">
            <path d="M241.404,660.697L241.781,683.564" style="fill:rgb(0,0,255);stroke:rgb(0,0,255);stroke-width:1px;"/>
        </g>
        <g transform="matrix(-0.604219,0.796819,0.796819,0.604219,838.954,894.803)">
            <path d="M241.404,660.697L241.781,683.564" style="fill:rgb(0,0,255);stroke:rgb(0,0,255);stroke-width:1px;"/>
        </g>
        <g transform="matrix(-0.604219,0.796819,0.796819,0.604219,824.972,913.643)">
            <path d="M241.404,660.697L241.781,683.564" style="fill:rgb(0,0,255);stroke:rgb(0,0,255);stroke-width:1px;"/>
        </g>
        <g transform="matrix(-0.604219,0.796819,0.796819,0.604219,810.553,932.369)">
            <path d="M241.404,660.697L241.781,683.564" style="fill:rgb(0,0,255);stroke:rgb(0,0,255);stroke-width:1px;"/>
        </g>
        <g transform="matrix(-0.604219,0.796819,0.796819,0.604219,796.451,951.089)">
            <path d="M241.404,660.697L241.781,683.564" style="fill:rgb(0,0,255);stroke:rgb(0,0,255);stroke-width:1px;"/>
        </g>
        <g transform="matrix(-0.604219,0.796819,0.796819,0.604219,782.241,969.83)">
            <path d="M241.404,660.697L241.781,683.564" style="fill:rgb(0,0,255);stroke:rgb(0,0,255);stroke-width:1px;"/>
        </g>
        <g transform="matrix(-0.604219,0.796819,0.796819,0.604219,768.259,988.67)">
            <path d="M241.404,660.697L241.781,683.564" style="fill:rgb(0,0,255);stroke:rgb(0,0,255);stroke-width:1px;"/>
        </g>
        <g transform="matrix(-0.604219,0.796819,0.796819,0.604219,753.841,1007.4)">
            <path d="M241.404,660.697L241.781,683.564" style="fill:rgb(0,0,255);stroke:rgb(0,0,255);stroke-width:1px;"/>
        </g>
        <g transform="matrix(-0.604219,0.796819,0.796819,0.604219,739.738,1026.12)">
            <path d="M241.404,660.697L241.781,683.564" style="fill:rgb(0,0,255);stroke:rgb(0,0,255);stroke-width:1px;"/>
        </g>
        <g transform="matrix(0.858629,0.008242,-0.008242,0.858629,534.944,1058.41)">
            <text x="696.247px" y="705.833px" style="font-family:'EdwardianScriptITC', 'Edwardian Script ITC', cursive;font-stretch:semi-expanded;font-size:50px;fill:rgb(0,0,255);">x</text>
        </g>
        <g transform="matrix(0.815237,-0.269632,0.269632,0.815237,265.324,952.978)">
            <text x="696.247px" y="705.833px" style="font-family:'EdwardianScriptITC', 'Edwardian Script ITC', cursive;font-stretch:semi-expanded;font-size:50px;fill:rgb(255,0,0);">y</text>
        </g>
        <g transform="matrix(1,0,0,1,-271.473,-163.097)">
            <g transform="matrix(1,0,0,1,1251.19,1273.72)">
                <text x="66.837px" y="397.367px" style="font-family:'ArialMT', 'Arial', sans-serif;font-size:50px;fill:rgb(6,136,0);">v</text>
                <text x="91.837px" y="397.367px" style="font-family:'ArialMT', 'Arial', sans-serif;font-size:20.833px;fill:rgb(6,136,0);">5</text>
            </g>
            <g transform="matrix(1,0,0,1,1260.56,1260.18)">
                <path d="M57.519,378.405L80.905,378.084L75.515,371.322" style="fill:none;stroke:rgb(6,136,0);stroke-width:1.87px;"/>
            </g>
        </g>
        <g transform="matrix(1,0,0,1,-0.137599,-6.3693)">
            <g transform="matrix(1,0,0,1,1251.19,1273.72)">
                <text x="66.837px" y="397.367px" style="font-family:'ArialMT', 'Arial', sans-serif;font-size:50px;fill:rgb(6,136,0);">v</text>
                <text x="91.837px" y="397.367px" style="font-family:'ArialMT', 'Arial', sans-serif;font-size:20.833px;fill:rgb(6,136,0);">6</text>
            </g>
            <g transform="matrix(1,0,0,1,1260.56,1260.18)">
                <path d="M57.519,378.405L80.905,378.084L75.515,371.322" style="fill:none;stroke:rgb(6,136,0);stroke-width:1.87px;"/>
            </g>
        </g>
        <g transform="matrix(1,0,0,1,71.9092,-188.11)">
            <g transform="matrix(1,0,0,1,1251.19,1273.72)">
                <text x="66.837px" y="397.367px" style="font-family:'ArialMT', 'Arial', sans-serif;font-size:50px;fill:rgb(6,136,0);">v</text>
                <text x="91.837px" y="397.367px" style="font-family:'ArialMT', 'Arial', sans-serif;font-size:20.833px;fill:rgb(6,136,0);">7</text>
            </g>
            <g transform="matrix(1,0,0,1,1260.56,1260.18)">
                <path d="M57.519,378.405L80.905,378.084L75.515,371.322" style="fill:none;stroke:rgb(6,136,0);stroke-width:1.87px;"/>
            </g>
        </g>
        <g transform="matrix(1,0,0,1,-22.963,-7.46128)">
            <text x="1062.89px" y="1229.2px" style="font-family:'ArialMT', 'Arial', sans-serif;font-size:58.333px;">Autoevaluación</text>
        </g>
    </g>
</svg>
