<?xml version="1.0" encoding="UTF-8" standalone="no"?>
<!DOCTYPE svg PUBLIC "-//W3C//DTD SVG 1.1//EN" "http://www.w3.org/Graphics/SVG/1.1/DTD/svg11.dtd">
<svg width="100%" height="100%" viewBox="0 0 728 499" version="1.1" xmlns="http://www.w3.org/2000/svg" xmlns:xlink="http://www.w3.org/1999/xlink" xml:space="preserve" style="fill-rule:evenodd;clip-rule:evenodd;stroke-linecap:round;stroke-linejoin:round;stroke-miterlimit:1.5;">
    <g transform="matrix(1,0,0,1,-2443.09,-1420.64)">
        <g transform="matrix(1.5566,0,0,2.85253,2158.87,833.324)">
            <path d="M649.642,249.542C649.642,225.451 613.8,205.892 569.652,205.892L262.581,205.892C218.433,205.892 182.59,225.451 182.59,249.542L182.59,336.842C182.59,360.934 218.433,380.493 262.581,380.493L569.652,380.493C613.8,380.493 649.642,360.934 649.642,336.842L649.642,249.542Z" style="fill:rgb(228,228,228);"/>
        </g>
        <g transform="matrix(1,0,0,1,2546.55,1227.7)">
            <text x="84.038px" y="597.426px" style="font-family:'ArialMT', 'Arial', sans-serif;font-size:50px;">= (</text>
            <text x="143.779px" y="597.426px" style="font-family:'ArialMT', 'Arial', sans-serif;font-size:50px;fill:rgb(0,0,255);">-4+5</text>
            <text x="245.244px" y="597.426px" style="font-family:'ArialMT', 'Arial', sans-serif;font-size:50px;">,</text>
            <text x="273.027px" y="597.426px" style="font-family:'ArialMT', 'Arial', sans-serif;font-size:50px;fill:rgb(255,0,0);">6-8</text>
            <text x="345.293px" y="597.426px" style="font-family:'ArialMT', 'Arial', sans-serif;font-size:50px;">) = (</text>
            <text x="435.576px" y="597.426px" style="font-family:'ArialMT', 'Arial', sans-serif;font-size:50px;fill:rgb(0,0,255);">1</text>
            <text x="463.384px" y="597.426px" style="font-family:'ArialMT', 'Arial', sans-serif;font-size:50px;">,</text>
            <text x="491.167px" y="597.426px" style="font-family:'ArialMT', 'Arial', sans-serif;font-size:50px;fill:rgb(255,0,0);">-2</text>
            <text x="535.625px" y="597.426px" style="font-family:'ArialMT', 'Arial', sans-serif;font-size:50px;">)</text>
        </g>
        <g transform="matrix(1,0,0,1,1576.98,1513.94)">
            <g transform="matrix(1,0,0,1,871.632,-89.8578)">
                <text x="66.837px" y="397.367px" style="font-family:'ArialMT', 'Arial', sans-serif;font-size:50px;fill:rgb(6,136,0);">v</text>
                <text x="91.837px" y="397.367px" style="font-family:'ArialMT', 'Arial', sans-serif;font-size:20.833px;fill:rgb(6,136,0);">1</text>
            </g>
            <g transform="matrix(1,0,0,1,881.573,-101.802)">
                <path d="M57.519,378.405L80.905,378.084L75.515,371.322" style="fill:none;stroke:rgb(6,136,0);stroke-width:1.87px;"/>
            </g>
        </g>
        <g transform="matrix(1,0,0,1,2612.22,1024.06)">
            <text x="84.038px" y="597.426px" style="font-family:'ArialMT', 'Arial', sans-serif;font-size:50px;">= (</text>
            <text x="143.779px" y="597.426px" style="font-family:'ArialMT', 'Arial', sans-serif;font-size:50px;fill:rgb(0,0,255);">-4</text>
            <text x="188.237px" y="597.426px" style="font-family:'ArialMT', 'Arial', sans-serif;font-size:50px;">,</text>
            <text x="216.02px" y="597.426px" style="font-family:'ArialMT', 'Arial', sans-serif;font-size:50px;fill:rgb(255,0,0);">6</text>
            <text x="243.828px" y="597.426px" style="font-family:'ArialMT', 'Arial', sans-serif;font-size:50px;">)</text>
        </g>
        <g transform="matrix(1,0,0,1,1712.03,1310.37)">
            <g transform="matrix(1,0,0,1,871.632,-89.8578)">
                <text x="66.837px" y="397.367px" style="font-family:'ArialMT', 'Arial', sans-serif;font-size:50px;fill:rgb(6,136,0);">v</text>
                <text x="91.837px" y="397.367px" style="font-family:'ArialMT', 'Arial', sans-serif;font-size:20.833px;fill:rgb(6,136,0);">1</text>
            </g>
            <g transform="matrix(1,0,0,1,881.573,-104.802)">
                <path d="M57.519,378.405L80.905,378.084L75.515,371.322" style="fill:none;stroke:rgb(6,136,0);stroke-width:1.87px;"/>
            </g>
        </g>
        <g transform="matrix(1,0,0,1,2612.61,1121.8)">
            <text x="84.038px" y="597.426px" style="font-family:'ArialMT', 'Arial', sans-serif;font-size:50px;">= (</text>
            <text x="143.779px" y="597.426px" style="font-family:'ArialMT', 'Arial', sans-serif;font-size:50px;fill:rgb(0,0,255);">5</text>
            <text x="171.587px" y="597.426px" style="font-family:'ArialMT', 'Arial', sans-serif;font-size:50px;">,</text>
            <text x="199.37px" y="597.426px" style="font-family:'ArialMT', 'Arial', sans-serif;font-size:50px;fill:rgb(255,0,0);">-8</text>
            <text x="243.828px" y="597.426px" style="font-family:'ArialMT', 'Arial', sans-serif;font-size:50px;">)</text>
        </g>
        <g transform="matrix(1,0,0,1,1712.42,1408.11)">
            <g transform="matrix(1,0,0,1,871.632,-89.8578)">
                <text x="66.837px" y="397.367px" style="font-family:'ArialMT', 'Arial', sans-serif;font-size:50px;fill:rgb(6,136,0);">v</text>
                <text x="91.837px" y="397.367px" style="font-family:'ArialMT', 'Arial', sans-serif;font-size:20.833px;fill:rgb(6,136,0);">2</text>
            </g>
            <g transform="matrix(1,0,0,1,881.573,-104.802)">
                <path d="M57.519,378.405L80.905,378.084L75.515,371.322" style="fill:none;stroke:rgb(6,136,0);stroke-width:1.87px;"/>
            </g>
        </g>
        <g transform="matrix(1,0,0,1,1712.42,1408.11)">
            <g transform="matrix(1,0,0,1,871.632,-89.8578)">
                <text x="66.837px" y="397.367px" style="font-family:'ArialMT', 'Arial', sans-serif;font-size:50px;fill:rgb(6,136,0);">v</text>
            </g>
            <g transform="matrix(1,0,0,1,881.573,-104.802)">
                <path d="M57.519,378.405L80.905,378.084L75.515,371.322" style="fill:none;stroke:rgb(6,136,0);stroke-width:1.87px;"/>
            </g>
        </g>
        <g transform="matrix(1,0,0,1,1617.7,1515.52)">
            <g transform="matrix(1,0,0,1,871.632,-89.8578)">
                <text x="66.837px" y="397.367px" style="font-family:'ArialMT', 'Arial', sans-serif;font-size:50px;fill:rgb(6,136,0);">+v</text>
                <text x="121.036px" y="397.367px" style="font-family:'ArialMT', 'Arial', sans-serif;font-size:20.833px;fill:rgb(6,136,0);">2</text>
            </g>
            <g transform="matrix(1,0,0,1,912.085,-102.374)">
                <path d="M57.519,378.405L80.905,378.084L75.515,371.322" style="fill:none;stroke:rgb(6,136,0);stroke-width:1.87px;"/>
            </g>
        </g>
        <g transform="matrix(1,0,0,1,1595.66,280.827)">
            <text x="1062.89px" y="1229.2px" style="font-family:'ArialMT', 'Arial', sans-serif;font-size:58.333px;">Ejemplo:</text>
        </g>
    </g>
</svg>
