<?xml version="1.0" encoding="UTF-8" standalone="no"?>
<!DOCTYPE svg PUBLIC "-//W3C//DTD SVG 1.1//EN" "http://www.w3.org/Graphics/SVG/1.1/DTD/svg11.dtd">
<svg width="100%" height="100%" viewBox="0 0 728 510" version="1.1" xmlns="http://www.w3.org/2000/svg" xmlns:xlink="http://www.w3.org/1999/xlink" xml:space="preserve" style="fill-rule:evenodd;clip-rule:evenodd;stroke-linecap:round;stroke-linejoin:round;stroke-miterlimit:1.5;">
    <g transform="matrix(1,0,0,1,-3228.09,-2331.47)">
        <g transform="matrix(1.5566,0,0,2.91847,2943.87,1730.58)">
            <path d="M649.642,249.542C649.642,225.451 612.971,205.892 567.803,205.892L264.43,205.892C219.262,205.892 182.59,225.451 182.59,249.542L182.59,336.842C182.59,360.934 219.262,380.493 264.43,380.493L567.803,380.493C612.971,380.493 649.642,360.934 649.642,336.842L649.642,249.542Z" style="fill:rgb(228,228,228);"/>
        </g>
        <g transform="matrix(1,0,0,1,2564.83,2441.56)">
            <g transform="matrix(1,0,0,1,871.632,-89.8578)">
                <text x="66.837px" y="397.367px" style="font-family:'ArialMT', 'Arial', sans-serif;font-size:50px;fill:rgb(6,136,0);">+2</text>
                <text x="123.844px" y="397.367px" style="font-family:'ArialMT', 'Arial', sans-serif;font-size:29.167px;fill:rgb(6,136,0);">x</text>
                <text x="138.427px" y="397.367px" style="font-family:'ArialMT', 'Arial', sans-serif;font-size:50px;fill:rgb(6,136,0);">v</text>
                <text x="163.427px" y="397.367px" style="font-family:'ArialMT', 'Arial', sans-serif;font-size:20.833px;fill:rgb(6,136,0);">2</text>
            </g>
            <g transform="matrix(1,0,0,1,952.963,-103.067)">
                <path d="M57.519,378.405L80.905,378.084L75.515,371.322" style="fill:none;stroke:rgb(6,136,0);stroke-width:1.87px;"/>
            </g>
        </g>
        <g transform="matrix(1,0,0,1,2444.38,2439.96)">
            <g transform="matrix(1,0,0,1,900.372,-88.2637)">
                <text x="66.837px" y="397.367px" style="font-family:'ArialMT', 'Arial', sans-serif;font-size:50px;fill:rgb(6,136,0);">3</text>
                <text x="94.644px" y="397.367px" style="font-family:'ArialMT', 'Arial', sans-serif;font-size:29.167px;fill:rgb(6,136,0);">x</text>
                <text x="109.228px" y="397.367px" style="font-family:'ArialMT', 'Arial', sans-serif;font-size:50px;fill:rgb(6,136,0);">v</text>
                <text x="134.228px" y="397.367px" style="font-family:'ArialMT', 'Arial', sans-serif;font-size:20.833px;fill:rgb(6,136,0);">1</text>
            </g>
            <g transform="matrix(1,0,0,1,952.963,-103.067)">
                <path d="M57.519,378.405L80.905,378.084L75.515,371.322" style="fill:none;stroke:rgb(6,136,0);stroke-width:1.87px;"/>
            </g>
        </g>
        <g transform="matrix(1,0,0,1,2566.66,2192.92)">
            <g transform="matrix(1,0,0,1,871.632,-89.8578)">
                <text x="66.837px" y="397.367px" style="font-family:'ArialMT', 'Arial', sans-serif;font-size:50px;fill:rgb(6,136,0);">v</text>
                <text x="91.837px" y="397.367px" style="font-family:'ArialMT', 'Arial', sans-serif;font-size:20.833px;fill:rgb(6,136,0);">1</text>
            </g>
            <g transform="matrix(1,0,0,1,881.573,-101.802)">
                <path d="M57.519,378.405L80.905,378.084L75.515,371.322" style="fill:none;stroke:rgb(6,136,0);stroke-width:1.87px;"/>
            </g>
        </g>
        <g transform="matrix(1,0,0,1,2607.37,2194.5)">
            <g transform="matrix(1,0,0,1,871.632,-89.8578)">
                <text x="66.837px" y="397.367px" style="font-family:'ArialMT', 'Arial', sans-serif;font-size:50px;fill:rgb(6,136,0);">+v</text>
                <text x="121.036px" y="397.367px" style="font-family:'ArialMT', 'Arial', sans-serif;font-size:20.833px;fill:rgb(6,136,0);">2</text>
            </g>
            <g transform="matrix(1,0,0,1,912.085,-102.374)">
                <path d="M57.519,378.405L80.905,378.084L75.515,371.322" style="fill:none;stroke:rgb(6,136,0);stroke-width:1.87px;"/>
            </g>
        </g>
        <g transform="matrix(1,0,0,1,2490.64,2343.08)">
            <g transform="matrix(1,0,0,1,871.632,-89.8578)">
                <text x="66.837px" y="397.367px" style="font-family:'ArialMT', 'Arial', sans-serif;font-size:50px;fill:rgb(6,136,0);">v</text>
                <text x="91.837px" y="397.367px" style="font-family:'ArialMT', 'Arial', sans-serif;font-size:20.833px;fill:rgb(6,136,0);">1</text>
            </g>
            <g transform="matrix(1,0,0,1,881.573,-101.802)">
                <path d="M57.519,378.405L80.905,378.084L75.515,371.322" style="fill:none;stroke:rgb(6,136,0);stroke-width:1.87px;"/>
            </g>
        </g>
        <g transform="matrix(1,0,0,1,2531.35,2344.66)">
            <g transform="matrix(1,0,0,1,871.632,-89.8578)">
                <text x="66.837px" y="397.367px" style="font-family:'ArialMT', 'Arial', sans-serif;font-size:50px;fill:rgb(6,136,0);">+v</text>
                <text x="121.036px" y="397.367px" style="font-family:'ArialMT', 'Arial', sans-serif;font-size:20.833px;fill:rgb(6,136,0);">2</text>
            </g>
            <g transform="matrix(1,0,0,1,912.085,-102.374)">
                <path d="M57.519,378.405L80.905,378.084L75.515,371.322" style="fill:none;stroke:rgb(6,136,0);stroke-width:1.87px;"/>
            </g>
        </g>
        <g transform="matrix(1,0,0,1,2606.5,2344.82)">
            <g transform="matrix(1,0,0,1,871.632,-89.8578)">
                <text x="66.837px" y="397.367px" style="font-family:'ArialMT', 'Arial', sans-serif;font-size:50px;fill:rgb(6,136,0);">+v</text>
                <text x="121.036px" y="397.367px" style="font-family:'ArialMT', 'Arial', sans-serif;font-size:20.833px;fill:rgb(6,136,0);">2</text>
            </g>
            <g transform="matrix(1,0,0,1,912.085,-102.374)">
                <path d="M57.519,378.405L80.905,378.084L75.515,371.322" style="fill:none;stroke:rgb(6,136,0);stroke-width:1.87px;"/>
            </g>
        </g>
        <g transform="matrix(1,0,0,1,2382.7,1175.91)">
            <text x="1062.89px" y="1229.2px" style="font-family:'ArialMT', 'Arial', sans-serif;font-size:58.333px;">Respuestas:</text>
        </g>
        <g transform="matrix(1,0,0,1,3548.8,1901.16)">
            <text x="84.038px" y="597.426px" style="font-family:'ArialMT', 'Arial', sans-serif;font-size:50px;">= (</text>
            <text x="143.779px" y="597.426px" style="font-family:'ArialMT', 'Arial', sans-serif;font-size:50px;fill:rgb(0,0,255);">3</text>
            <text x="171.587px" y="597.426px" style="font-family:'ArialMT', 'Arial', sans-serif;font-size:50px;">,</text>
            <text x="199.37px" y="597.426px" style="font-family:'ArialMT', 'Arial', sans-serif;font-size:50px;fill:rgb(255,0,0);">5</text>
            <text x="227.178px" y="597.426px" style="font-family:'ArialMT', 'Arial', sans-serif;font-size:50px;">)</text>
        </g>
        <g transform="matrix(1,0,0,1,3549.18,1973.45)">
            <text x="84.038px" y="597.426px" style="font-family:'ArialMT', 'Arial', sans-serif;font-size:50px;">= (</text>
            <text x="143.779px" y="597.426px" style="font-family:'ArialMT', 'Arial', sans-serif;font-size:50px;fill:rgb(0,0,255);">1</text>
            <text x="171.587px" y="597.426px" style="font-family:'ArialMT', 'Arial', sans-serif;font-size:50px;">,</text>
            <text x="199.37px" y="597.426px" style="font-family:'ArialMT', 'Arial', sans-serif;font-size:50px;fill:rgb(255,0,0);">1</text>
            <text x="227.178px" y="597.426px" style="font-family:'ArialMT', 'Arial', sans-serif;font-size:50px;">)</text>
        </g>
        <g transform="matrix(1,0,0,1,3544.6,2054.57)">
            <text x="84.038px" y="597.426px" style="font-family:'ArialMT', 'Arial', sans-serif;font-size:50px;">= (</text>
            <text x="143.779px" y="597.426px" style="font-family:'ArialMT', 'Arial', sans-serif;font-size:50px;fill:rgb(0,0,255);">4</text>
            <text x="171.587px" y="597.426px" style="font-family:'ArialMT', 'Arial', sans-serif;font-size:50px;">,</text>
            <text x="199.37px" y="597.426px" style="font-family:'ArialMT', 'Arial', sans-serif;font-size:50px;fill:rgb(255,0,0);">7</text>
            <text x="227.178px" y="597.426px" style="font-family:'ArialMT', 'Arial', sans-serif;font-size:50px;">)</text>
        </g>
        <g transform="matrix(1,0,0,1,3544.31,2150.34)">
            <text x="84.038px" y="597.426px" style="font-family:'ArialMT', 'Arial', sans-serif;font-size:50px;">= (</text>
            <text x="143.779px" y="597.426px" style="font-family:'ArialMT', 'Arial', sans-serif;font-size:50px;fill:rgb(0,0,255);">8</text>
            <text x="171.587px" y="597.426px" style="font-family:'ArialMT', 'Arial', sans-serif;font-size:50px;">,</text>
            <text x="199.37px" y="597.426px" style="font-family:'ArialMT', 'Arial', sans-serif;font-size:50px;fill:rgb(255,0,0);">13</text>
            <text x="254.985px" y="597.426px" style="font-family:'ArialMT', 'Arial', sans-serif;font-size:50px;">)</text>
        </g>
        <g transform="matrix(1,0,0,1,2573.2,2261.37)">
            <g transform="matrix(1,0,0,1,871.632,-89.8578)">
                <text x="66.837px" y="397.367px" style="font-family:'ArialMT', 'Arial', sans-serif;font-size:50px;fill:rgb(6,136,0);">v</text>
                <text x="91.837px" y="397.367px" style="font-family:'ArialMT', 'Arial', sans-serif;font-size:20.833px;fill:rgb(6,136,0);">1</text>
            </g>
            <g transform="matrix(1,0,0,1,881.573,-101.802)">
                <path d="M57.519,378.405L80.905,378.084L75.515,371.322" style="fill:none;stroke:rgb(6,136,0);stroke-width:1.87px;"/>
            </g>
        </g>
        <g transform="matrix(1,0,0,1,2613.92,2262.96)">
            <g transform="matrix(1,0,0,1,871.632,-89.8578)">
                <text x="66.837px" y="397.367px" style="font-family:'ArialMT', 'Arial', sans-serif;font-size:50px;fill:rgb(6,136,0);">- v</text>
                <text x="122.379px" y="397.367px" style="font-family:'ArialMT', 'Arial', sans-serif;font-size:20.833px;fill:rgb(6,136,0);">2</text>
            </g>
            <g transform="matrix(1,0,0,1,912.085,-102.374)">
                <path d="M57.519,378.405L80.905,378.084L75.515,371.322" style="fill:none;stroke:rgb(6,136,0);stroke-width:1.87px;"/>
            </g>
        </g>
    </g>
</svg>
