<?xml version="1.0" encoding="UTF-8" standalone="no"?>
<!DOCTYPE svg PUBLIC "-//W3C//DTD SVG 1.1//EN" "http://www.w3.org/Graphics/SVG/1.1/DTD/svg11.dtd">
<svg width="100%" height="100%" viewBox="0 0 728 795" version="1.1" xmlns="http://www.w3.org/2000/svg" xmlns:xlink="http://www.w3.org/1999/xlink" xml:space="preserve" style="fill-rule:evenodd;clip-rule:evenodd;stroke-linecap:round;stroke-linejoin:round;stroke-miterlimit:1.5;">
    <g transform="matrix(1,0,0,1,-2434.98,-2035.78)">
        <g transform="matrix(1.5566,0,0,4.55062,2150.76,1098.85)">
            <path d="M649.642,245.832C649.642,223.789 597.323,205.892 532.879,205.892L299.353,205.892C234.91,205.892 182.59,223.789 182.59,245.832L182.59,340.552C182.59,362.596 234.91,380.493 299.353,380.493L532.879,380.493C597.323,380.493 649.642,362.596 649.642,340.552L649.642,245.832Z" style="fill:rgb(228,228,228);"/>
        </g>
        <g transform="matrix(1,0,0,1,1834.71,2444.68)">
            <g transform="matrix(1,0,0,1,871.632,-89.8578)">
                <text x="66.837px" y="397.367px" style="font-family:'ArialMT', 'Arial', sans-serif;font-size:50px;fill:rgb(6,136,0);">+2</text>
                <text x="123.844px" y="397.367px" style="font-family:'ArialMT', 'Arial', sans-serif;font-size:29.167px;fill:rgb(6,136,0);">x</text>
                <text x="138.427px" y="397.367px" style="font-family:'ArialMT', 'Arial', sans-serif;font-size:50px;fill:rgb(6,136,0);">v</text>
                <text x="163.427px" y="397.367px" style="font-family:'ArialMT', 'Arial', sans-serif;font-size:20.833px;fill:rgb(6,136,0);">2</text>
            </g>
            <g transform="matrix(1,0,0,1,952.963,-103.067)">
                <path d="M57.519,378.405L80.905,378.084L75.515,371.322" style="fill:none;stroke:rgb(6,136,0);stroke-width:1.87px;"/>
            </g>
        </g>
        <g transform="matrix(1,0,0,1,1714.26,2443.08)">
            <g transform="matrix(1,0,0,1,900.372,-88.2637)">
                <text x="66.837px" y="397.367px" style="font-family:'ArialMT', 'Arial', sans-serif;font-size:50px;fill:rgb(6,136,0);">3</text>
                <text x="94.644px" y="397.367px" style="font-family:'ArialMT', 'Arial', sans-serif;font-size:29.167px;fill:rgb(6,136,0);">x</text>
                <text x="109.228px" y="397.367px" style="font-family:'ArialMT', 'Arial', sans-serif;font-size:50px;fill:rgb(6,136,0);">v</text>
                <text x="134.228px" y="397.367px" style="font-family:'ArialMT', 'Arial', sans-serif;font-size:20.833px;fill:rgb(6,136,0);">1</text>
            </g>
            <g transform="matrix(1,0,0,1,952.963,-103.067)">
                <path d="M57.519,378.405L80.905,378.084L75.515,371.322" style="fill:none;stroke:rgb(6,136,0);stroke-width:1.87px;"/>
            </g>
        </g>
        <g transform="matrix(1,0,0,1,1773.54,2189.54)">
            <g transform="matrix(1,0,0,1,871.632,-89.8578)">
                <text x="66.837px" y="397.367px" style="font-family:'ArialMT', 'Arial', sans-serif;font-size:50px;fill:rgb(6,136,0);">v</text>
                <text x="91.837px" y="397.367px" style="font-family:'ArialMT', 'Arial', sans-serif;font-size:20.833px;fill:rgb(6,136,0);">1</text>
            </g>
            <g transform="matrix(1,0,0,1,881.573,-101.802)">
                <path d="M57.519,378.405L80.905,378.084L75.515,371.322" style="fill:none;stroke:rgb(6,136,0);stroke-width:1.87px;"/>
            </g>
        </g>
        <g transform="matrix(1,0,0,1,2603.67,1634.92)">
            <text x="84.038px" y="597.426px" style="font-family:'ArialMT', 'Arial', sans-serif;font-size:50px;">= (</text>
            <text x="143.779px" y="597.426px" style="font-family:'ArialMT', 'Arial', sans-serif;font-size:50px;fill:rgb(0,0,255);">2</text>
            <text x="171.587px" y="597.426px" style="font-family:'ArialMT', 'Arial', sans-serif;font-size:50px;">,</text>
            <text x="199.37px" y="597.426px" style="font-family:'ArialMT', 'Arial', sans-serif;font-size:50px;fill:rgb(255,0,0);">3</text>
            <text x="227.178px" y="597.426px" style="font-family:'ArialMT', 'Arial', sans-serif;font-size:50px;">)</text>
        </g>
        <g transform="matrix(1,0,0,1,1703.48,1921.23)">
            <g transform="matrix(1,0,0,1,871.632,-89.8578)">
                <text x="66.837px" y="397.367px" style="font-family:'ArialMT', 'Arial', sans-serif;font-size:50px;fill:rgb(6,136,0);">v</text>
                <text x="91.837px" y="397.367px" style="font-family:'ArialMT', 'Arial', sans-serif;font-size:20.833px;fill:rgb(6,136,0);">1</text>
            </g>
            <g transform="matrix(1,0,0,1,881.573,-104.802)">
                <path d="M57.519,378.405L80.905,378.084L75.515,371.322" style="fill:none;stroke:rgb(6,136,0);stroke-width:1.87px;"/>
            </g>
        </g>
        <g transform="matrix(1,0,0,1,2604.06,1732.66)">
            <text x="84.038px" y="597.426px" style="font-family:'ArialMT', 'Arial', sans-serif;font-size:50px;">= (</text>
            <text x="143.779px" y="597.426px" style="font-family:'ArialMT', 'Arial', sans-serif;font-size:50px;fill:rgb(0,0,255);">1</text>
            <text x="171.587px" y="597.426px" style="font-family:'ArialMT', 'Arial', sans-serif;font-size:50px;">,</text>
            <text x="199.37px" y="597.426px" style="font-family:'ArialMT', 'Arial', sans-serif;font-size:50px;fill:rgb(255,0,0);">2</text>
            <text x="227.178px" y="597.426px" style="font-family:'ArialMT', 'Arial', sans-serif;font-size:50px;">)</text>
        </g>
        <g transform="matrix(1,0,0,1,1703.88,2018.97)">
            <g transform="matrix(1,0,0,1,871.632,-89.8578)">
                <text x="66.837px" y="397.367px" style="font-family:'ArialMT', 'Arial', sans-serif;font-size:50px;fill:rgb(6,136,0);">v</text>
                <text x="91.837px" y="397.367px" style="font-family:'ArialMT', 'Arial', sans-serif;font-size:20.833px;fill:rgb(6,136,0);">2</text>
            </g>
            <g transform="matrix(1,0,0,1,881.573,-104.802)">
                <path d="M57.519,378.405L80.905,378.084L75.515,371.322" style="fill:none;stroke:rgb(6,136,0);stroke-width:1.87px;"/>
            </g>
        </g>
        <g transform="matrix(1,0,0,1,1703.88,2018.97)">
            <g transform="matrix(1,0,0,1,871.632,-89.8578)">
                <text x="66.837px" y="397.367px" style="font-family:'ArialMT', 'Arial', sans-serif;font-size:50px;fill:rgb(6,136,0);">v</text>
            </g>
            <g transform="matrix(1,0,0,1,881.573,-104.802)">
                <path d="M57.519,378.405L80.905,378.084L75.515,371.322" style="fill:none;stroke:rgb(6,136,0);stroke-width:1.87px;"/>
            </g>
        </g>
        <g transform="matrix(1,0,0,1,1814.26,2191.12)">
            <g transform="matrix(1,0,0,1,871.632,-89.8578)">
                <text x="66.837px" y="397.367px" style="font-family:'ArialMT', 'Arial', sans-serif;font-size:50px;fill:rgb(6,136,0);">+v</text>
                <text x="121.036px" y="397.367px" style="font-family:'ArialMT', 'Arial', sans-serif;font-size:20.833px;fill:rgb(6,136,0);">2</text>
            </g>
            <g transform="matrix(1,0,0,1,912.085,-102.374)">
                <path d="M57.519,378.405L80.905,378.084L75.515,371.322" style="fill:none;stroke:rgb(6,136,0);stroke-width:1.87px;"/>
            </g>
        </g>
        <g transform="matrix(1,0,0,1,1771.03,2252.5)">
            <g transform="matrix(1,0,0,1,871.632,-89.8578)">
                <text x="66.837px" y="397.367px" style="font-family:'ArialMT', 'Arial', sans-serif;font-size:50px;fill:rgb(6,136,0);">v</text>
                <text x="91.837px" y="397.367px" style="font-family:'ArialMT', 'Arial', sans-serif;font-size:20.833px;fill:rgb(6,136,0);">1</text>
            </g>
            <g transform="matrix(1,0,0,1,881.573,-101.802)">
                <path d="M57.519,378.405L80.905,378.084L75.515,371.322" style="fill:none;stroke:rgb(6,136,0);stroke-width:1.87px;"/>
            </g>
        </g>
        <g transform="matrix(1,0,0,1,1811.75,2254.08)">
            <g transform="matrix(1,0,0,1,871.632,-89.8578)">
                <text x="66.837px" y="397.367px" style="font-family:'ArialMT', 'Arial', sans-serif;font-size:50px;fill:rgb(6,136,0);">- v</text>
                <text x="122.379px" y="397.367px" style="font-family:'ArialMT', 'Arial', sans-serif;font-size:20.833px;fill:rgb(6,136,0);">2</text>
            </g>
            <g transform="matrix(1,0,0,1,912.085,-102.374)">
                <path d="M57.519,378.405L80.905,378.084L75.515,371.322" style="fill:none;stroke:rgb(6,136,0);stroke-width:1.87px;"/>
            </g>
        </g>
        <g transform="matrix(1,0,0,1,1619.06,2334.35)">
            <g transform="matrix(1,0,0,1,871.632,-89.8578)">
                <text x="66.837px" y="397.367px" style="font-family:'ArialMT', 'Arial', sans-serif;font-size:50px;fill:rgb(6,136,0);">v</text>
                <text x="91.837px" y="397.367px" style="font-family:'ArialMT', 'Arial', sans-serif;font-size:20.833px;fill:rgb(6,136,0);">1</text>
            </g>
            <g transform="matrix(1,0,0,1,881.573,-101.802)">
                <path d="M57.519,378.405L80.905,378.084L75.515,371.322" style="fill:none;stroke:rgb(6,136,0);stroke-width:1.87px;"/>
            </g>
        </g>
        <g transform="matrix(1,0,0,1,1659.78,2335.93)">
            <g transform="matrix(1,0,0,1,871.632,-89.8578)">
                <text x="66.837px" y="397.367px" style="font-family:'ArialMT', 'Arial', sans-serif;font-size:50px;fill:rgb(6,136,0);">+v</text>
                <text x="121.036px" y="397.367px" style="font-family:'ArialMT', 'Arial', sans-serif;font-size:20.833px;fill:rgb(6,136,0);">2</text>
            </g>
            <g transform="matrix(1,0,0,1,912.085,-102.374)">
                <path d="M57.519,378.405L80.905,378.084L75.515,371.322" style="fill:none;stroke:rgb(6,136,0);stroke-width:1.87px;"/>
            </g>
        </g>
        <g transform="matrix(1,0,0,1,1734.93,2336.09)">
            <g transform="matrix(1,0,0,1,871.632,-89.8578)">
                <text x="66.837px" y="397.367px" style="font-family:'ArialMT', 'Arial', sans-serif;font-size:50px;fill:rgb(6,136,0);">+v</text>
                <text x="121.036px" y="397.367px" style="font-family:'ArialMT', 'Arial', sans-serif;font-size:20.833px;fill:rgb(6,136,0);">2</text>
            </g>
            <g transform="matrix(1,0,0,1,912.085,-102.374)">
                <path d="M57.519,378.405L80.905,378.084L75.515,371.322" style="fill:none;stroke:rgb(6,136,0);stroke-width:1.87px;"/>
            </g>
        </g>
        <g transform="matrix(1,0,0,1,1878.57,2331.92)">
            <g transform="matrix(1,0,0,1,871.632,-89.8578)">
                <text x="66.837px" y="397.367px" style="font-family:'ArialMT', 'Arial', sans-serif;font-size:50px;fill:rgb(6,136,0);">v</text>
                <text x="91.837px" y="397.367px" style="font-family:'ArialMT', 'Arial', sans-serif;font-size:20.833px;fill:rgb(6,136,0);">1</text>
            </g>
            <g transform="matrix(1,0,0,1,881.573,-101.802)">
                <path d="M57.519,378.405L80.905,378.084L75.515,371.322" style="fill:none;stroke:rgb(6,136,0);stroke-width:1.87px;"/>
            </g>
        </g>
        <g transform="matrix(1,0,0,1,1918.3,2329.44)">
            <g transform="matrix(1,0,0,1,871.632,-89.8578)">
                <text x="66.837px" y="397.367px" style="font-family:'ArialMT', 'Arial', sans-serif;font-size:50px;fill:rgb(6,136,0);">+2</text>
                <text x="123.844px" y="397.367px" style="font-family:'ArialMT', 'Arial', sans-serif;font-size:29.167px;fill:rgb(6,136,0);">x</text>
                <text x="138.427px" y="397.367px" style="font-family:'ArialMT', 'Arial', sans-serif;font-size:50px;fill:rgb(6,136,0);">v</text>
                <text x="163.427px" y="397.367px" style="font-family:'ArialMT', 'Arial', sans-serif;font-size:20.833px;fill:rgb(6,136,0);">2</text>
            </g>
            <g transform="matrix(1,0,0,1,952.963,-103.067)">
                <path d="M57.519,378.405L80.905,378.084L75.515,371.322" style="fill:none;stroke:rgb(6,136,0);stroke-width:1.87px;"/>
            </g>
        </g>
        <g transform="matrix(1,0,0,1,13.9963,89.048)">
            <text x="2740.91px" y="2560.98px" style="font-family:'Arial-BoldMT', 'Arial', sans-serif;font-weight:700;font-size:66.667px;">=</text>
        </g>
        <g transform="matrix(1,0,0,1,1542.11,891.683)">
            <text x="1062.89px" y="1229.2px" style="font-family:'ArialMT', 'Arial', sans-serif;font-size:58.333px;">Autoevaluación:</text>
        </g>
        <g transform="matrix(1,0,0,1,1609.57,1206.02)">
            <text x="1062.89px" y="1229.2px" style="font-family:'ArialMT', 'Arial', sans-serif;font-size:58.333px;">Calcula:</text>
        </g>
    </g>
</svg>
